%TF.GenerationSoftware,KiCad,Pcbnew,10.0.3*%
%TF.CreationDate,2026-07-08T15:00:03+05:30*%
%TF.ProjectId,USB-UART(Converter),5553422d-5541-4525-9428-436f6e766572,rev?*%
%TF.SameCoordinates,Original*%
%TF.FileFunction,Copper,L1,Top*%
%TF.FilePolarity,Positive*%
%FSLAX46Y46*%
G04 Gerber Fmt 4.6, Leading zero omitted, Abs format (unit mm)*
G04 Created by KiCad (PCBNEW 10.0.3) date 2026-07-08 15:00:03*
%MOMM*%
%LPD*%
G01*
G04 APERTURE LIST*
G04 Aperture macros list*
%AMRoundRect*
0 Rectangle with rounded corners*
0 $1 Rounding radius*
0 $2 $3 $4 $5 $6 $7 $8 $9 X,Y pos of 4 corners*
0 Add a 4 corners polygon primitive as box body*
4,1,4,$2,$3,$4,$5,$6,$7,$8,$9,$2,$3,0*
0 Add four circle primitives for the rounded corners*
1,1,$1+$1,$2,$3*
1,1,$1+$1,$4,$5*
1,1,$1+$1,$6,$7*
1,1,$1+$1,$8,$9*
0 Add four rect primitives between the rounded corners*
20,1,$1+$1,$2,$3,$4,$5,0*
20,1,$1+$1,$4,$5,$6,$7,0*
20,1,$1+$1,$6,$7,$8,$9,0*
20,1,$1+$1,$8,$9,$2,$3,0*%
G04 Aperture macros list end*
%TA.AperFunction,ComponentPad*%
%ADD10C,1.524000*%
%TD*%
%TA.AperFunction,ComponentPad*%
%ADD11R,1.524000X1.524000*%
%TD*%
%TA.AperFunction,ComponentPad*%
%ADD12C,3.800000*%
%TD*%
%TA.AperFunction,SMDPad,CuDef*%
%ADD13RoundRect,0.625000X-0.875000X0.625000X-0.875000X-0.625000X0.875000X-0.625000X0.875000X0.625000X0*%
%TD*%
%TA.AperFunction,ComponentPad*%
%ADD14R,1.700000X1.700000*%
%TD*%
%TA.AperFunction,ComponentPad*%
%ADD15C,1.700000*%
%TD*%
%TA.AperFunction,SMDPad,CuDef*%
%ADD16RoundRect,0.225000X0.225000X0.250000X-0.225000X0.250000X-0.225000X-0.250000X0.225000X-0.250000X0*%
%TD*%
%TA.AperFunction,SMDPad,CuDef*%
%ADD17RoundRect,0.225000X-0.225000X-0.250000X0.225000X-0.250000X0.225000X0.250000X-0.225000X0.250000X0*%
%TD*%
%TA.AperFunction,SMDPad,CuDef*%
%ADD18RoundRect,0.150000X-0.825000X-0.150000X0.825000X-0.150000X0.825000X0.150000X-0.825000X0.150000X0*%
%TD*%
%TA.AperFunction,SMDPad,CuDef*%
%ADD19RoundRect,0.250000X-1.250000X0.375000X-1.250000X-0.375000X1.250000X-0.375000X1.250000X0.375000X0*%
%TD*%
%TA.AperFunction,ComponentPad*%
%ADD20C,3.000000*%
%TD*%
%TA.AperFunction,ViaPad*%
%ADD21C,0.600000*%
%TD*%
%TA.AperFunction,Conductor*%
%ADD22C,0.200000*%
%TD*%
G04 APERTURE END LIST*
D10*
X130532500Y-82505000D03*
X130532500Y-80505000D03*
X130532500Y-78505000D03*
D11*
X130532500Y-76505000D03*
D12*
X91325000Y-66950000D03*
X130675000Y-88550000D03*
X130675000Y-66950000D03*
D13*
X110650000Y-78662500D03*
X110650000Y-85162500D03*
D12*
X91325000Y-88550000D03*
D14*
X109300000Y-71512500D03*
D15*
X111840000Y-71512500D03*
D16*
X111350000Y-88187500D03*
X109800000Y-88187500D03*
D17*
X109850000Y-75762500D03*
X111400000Y-75762500D03*
D18*
X118200000Y-73697500D03*
X118200000Y-74967500D03*
X118200000Y-76237500D03*
X118200000Y-77507500D03*
X118200000Y-78777500D03*
X118200000Y-80047500D03*
X118200000Y-81317500D03*
X118200000Y-82587500D03*
X123150000Y-82587500D03*
X123150000Y-81317500D03*
X123150000Y-80047500D03*
X123150000Y-78777500D03*
X123150000Y-77507500D03*
X123150000Y-76237500D03*
X123150000Y-74967500D03*
X123150000Y-73697500D03*
D19*
X103130000Y-73762500D03*
X103130000Y-76262500D03*
X103130000Y-78262500D03*
X103130000Y-80762500D03*
D20*
X99450000Y-70692500D03*
X99450000Y-83832500D03*
D21*
X105975000Y-75087500D03*
X115375000Y-76786027D03*
X105900000Y-80537500D03*
X116950000Y-72287500D03*
X114550000Y-73737500D03*
X114775000Y-77537500D03*
X115125000Y-79687500D03*
X115075000Y-82362500D03*
D22*
X119475000Y-81017499D02*
X119174999Y-81317500D01*
X109850000Y-77862500D02*
X110650000Y-78662500D01*
X109850000Y-75762500D02*
X109850000Y-77862500D01*
X119475000Y-79706948D02*
X119475000Y-81017499D01*
X116124448Y-80437500D02*
X117114448Y-79447500D01*
X119215552Y-79447500D02*
X119475000Y-79706948D01*
X117114448Y-79447500D02*
X119215552Y-79447500D01*
X110650000Y-78662500D02*
X112425000Y-80437500D01*
X119174999Y-81317500D02*
X118200000Y-81317500D01*
X112425000Y-80437500D02*
X116124448Y-80437500D01*
X110650000Y-85162500D02*
X110650000Y-83037500D01*
X110650000Y-85162500D02*
X110650000Y-87487500D01*
X117750000Y-83037500D02*
X118200000Y-82587500D01*
X110650000Y-83037500D02*
X117750000Y-83037500D01*
X110650000Y-87487500D02*
X111350000Y-88187500D01*
X118200000Y-74967500D02*
X117225001Y-74967500D01*
X118400000Y-75167500D02*
X118500000Y-75167500D01*
X129470500Y-77443000D02*
X130532500Y-78505000D01*
X129470500Y-74558000D02*
X129470500Y-77443000D01*
X117225001Y-74967500D02*
X116100000Y-73842499D01*
X116100000Y-73842499D02*
X116100000Y-71662500D01*
X126575000Y-71662500D02*
X129470500Y-74558000D01*
X116100000Y-71662500D02*
X126575000Y-71662500D01*
X127425000Y-70137500D02*
X131594500Y-74307000D01*
X115450000Y-70137500D02*
X127425000Y-70137500D01*
X117401471Y-76237500D02*
X115450000Y-74286029D01*
X131594500Y-79443000D02*
X130532500Y-80505000D01*
X118200000Y-76237500D02*
X117401471Y-76237500D01*
X115450000Y-74286029D02*
X115450000Y-70137500D01*
X131594500Y-74307000D02*
X131594500Y-79443000D01*
X111400000Y-75762500D02*
X111500000Y-75862500D01*
X128675000Y-81212500D02*
X129240000Y-81212500D01*
X99450000Y-83832500D02*
X102520000Y-80762500D01*
X118200000Y-73697500D02*
X119990000Y-73697500D01*
X109800000Y-87432500D02*
X109800000Y-88187500D01*
X118235000Y-73662500D02*
X118200000Y-73697500D01*
X102520000Y-80762500D02*
X103130000Y-80762500D01*
X121400000Y-72287500D02*
X125325000Y-72287500D01*
X128675000Y-75637500D02*
X128675000Y-81212500D01*
X99450000Y-70692500D02*
X99450000Y-83832500D01*
X103130000Y-80762500D02*
X103355000Y-80537500D01*
X119990000Y-73697500D02*
X121400000Y-72287500D01*
X105975000Y-75087500D02*
X106325000Y-74737500D01*
X115373527Y-76787500D02*
X115375000Y-76786027D01*
X111400000Y-75562500D02*
X111400000Y-75762500D01*
X116950000Y-72287500D02*
X117825000Y-72287500D01*
X129240000Y-81212500D02*
X130532500Y-82505000D01*
X117825000Y-72287500D02*
X118200000Y-72662500D01*
X110575000Y-74737500D02*
X111400000Y-75562500D01*
X106325000Y-74737500D02*
X110575000Y-74737500D01*
X103130000Y-80762500D02*
X109800000Y-87432500D01*
X103355000Y-80537500D02*
X105900000Y-80537500D01*
X125325000Y-72287500D02*
X128675000Y-75637500D01*
X112425000Y-76787500D02*
X115373527Y-76787500D01*
X111400000Y-75762500D02*
X112425000Y-76787500D01*
X118200000Y-72662500D02*
X118200000Y-73697500D01*
X114775000Y-77537500D02*
X118170000Y-77537500D01*
X118170000Y-77537500D02*
X118200000Y-77507500D01*
X111525000Y-73737500D02*
X114550000Y-73737500D01*
X109300000Y-71512500D02*
X111525000Y-73737500D01*
X115125000Y-79687500D02*
X116035000Y-78777500D01*
X103130000Y-78262500D02*
X105200000Y-78262500D01*
X109300000Y-82362500D02*
X115075000Y-82362500D01*
X116035000Y-78777500D02*
X118200000Y-78777500D01*
X105200000Y-78262500D02*
X109300000Y-82362500D01*
X104630000Y-76262500D02*
X109530000Y-81162500D01*
X103130000Y-76262500D02*
X104630000Y-76262500D01*
X116400000Y-81162500D02*
X117515000Y-80047500D01*
X117515000Y-80047500D02*
X118200000Y-80047500D01*
X109530000Y-81162500D02*
X116400000Y-81162500D01*
X103130000Y-73762500D02*
X103505000Y-74137500D01*
X113575000Y-74137500D02*
X116275000Y-76837500D01*
X122415000Y-73697500D02*
X123150000Y-73697500D01*
X103505000Y-74137500D02*
X113575000Y-74137500D01*
X119275000Y-76837500D02*
X122415000Y-73697500D01*
X116275000Y-76837500D02*
X119275000Y-76837500D01*
%TA.AperFunction,Conductor*%
G36*
X113341942Y-74757685D02*
G01*
X113362584Y-74774319D01*
X115160965Y-76572701D01*
X115194450Y-76634024D01*
X115189466Y-76703716D01*
X115147594Y-76759649D01*
X115082130Y-76784066D01*
X115025832Y-76774943D01*
X115008501Y-76767764D01*
X115008489Y-76767761D01*
X114853845Y-76737000D01*
X114853842Y-76737000D01*
X114696158Y-76737000D01*
X114696155Y-76737000D01*
X114541510Y-76767761D01*
X114541498Y-76767764D01*
X114395827Y-76828102D01*
X114395814Y-76828109D01*
X114264711Y-76915710D01*
X114264707Y-76915713D01*
X114153213Y-77027207D01*
X114153210Y-77027211D01*
X114065609Y-77158314D01*
X114065602Y-77158327D01*
X114005264Y-77303998D01*
X114005261Y-77304010D01*
X113974500Y-77458653D01*
X113974500Y-77616346D01*
X114005261Y-77770989D01*
X114005264Y-77771001D01*
X114065602Y-77916672D01*
X114065609Y-77916685D01*
X114153210Y-78047788D01*
X114153213Y-78047792D01*
X114264707Y-78159286D01*
X114264711Y-78159289D01*
X114395814Y-78246890D01*
X114395827Y-78246897D01*
X114474894Y-78279647D01*
X114541503Y-78307237D01*
X114696153Y-78337999D01*
X114696156Y-78338000D01*
X114696158Y-78338000D01*
X114853844Y-78338000D01*
X114853845Y-78337999D01*
X115008497Y-78307237D01*
X115154179Y-78246894D01*
X115154185Y-78246890D01*
X115285875Y-78158898D01*
X115303921Y-78153247D01*
X115319831Y-78143023D01*
X115350792Y-78138571D01*
X115352553Y-78138020D01*
X115354766Y-78138000D01*
X115525902Y-78138000D01*
X115592941Y-78157685D01*
X115638696Y-78210489D01*
X115648640Y-78279647D01*
X115619615Y-78343203D01*
X115613583Y-78349681D01*
X115110339Y-78852925D01*
X115049016Y-78886410D01*
X115046850Y-78886861D01*
X114891508Y-78917761D01*
X114891498Y-78917764D01*
X114745827Y-78978102D01*
X114745814Y-78978109D01*
X114614711Y-79065710D01*
X114614707Y-79065713D01*
X114503213Y-79177207D01*
X114503210Y-79177211D01*
X114415609Y-79308314D01*
X114415602Y-79308327D01*
X114355264Y-79453998D01*
X114355261Y-79454010D01*
X114324500Y-79608653D01*
X114324500Y-79713000D01*
X114304815Y-79780039D01*
X114252011Y-79825794D01*
X114200500Y-79837000D01*
X112725097Y-79837000D01*
X112695656Y-79828355D01*
X112665670Y-79821832D01*
X112660654Y-79818077D01*
X112658058Y-79817315D01*
X112637416Y-79800681D01*
X112621268Y-79784533D01*
X112587783Y-79723210D01*
X112592767Y-79653518D01*
X112594941Y-79648087D01*
X112601934Y-79631759D01*
X112647624Y-79421726D01*
X112650500Y-79373448D01*
X112650500Y-77951552D01*
X112647624Y-77903274D01*
X112610954Y-77734703D01*
X112601935Y-77693244D01*
X112601933Y-77693239D01*
X112517322Y-77495654D01*
X112396848Y-77317651D01*
X112396840Y-77317642D01*
X112244857Y-77165659D01*
X112244848Y-77165651D01*
X112066845Y-77045177D01*
X111869260Y-76960566D01*
X111869250Y-76960563D01*
X111828860Y-76951777D01*
X111767537Y-76918292D01*
X111734053Y-76856968D01*
X111739038Y-76787277D01*
X111780909Y-76731343D01*
X111816216Y-76712905D01*
X111933479Y-76674048D01*
X111933492Y-76674042D01*
X112077728Y-76585075D01*
X112077732Y-76585072D01*
X112197572Y-76465232D01*
X112197575Y-76465228D01*
X112286542Y-76320992D01*
X112286547Y-76320981D01*
X112339855Y-76160106D01*
X112349999Y-76060822D01*
X112350000Y-76060809D01*
X112350000Y-76012500D01*
X111524000Y-76012500D01*
X111456961Y-75992815D01*
X111411206Y-75940011D01*
X111400000Y-75888500D01*
X111400000Y-75636500D01*
X111419685Y-75569461D01*
X111472489Y-75523706D01*
X111524000Y-75512500D01*
X112349999Y-75512500D01*
X112349999Y-75464192D01*
X112349998Y-75464177D01*
X112339855Y-75364892D01*
X112286547Y-75204018D01*
X112286542Y-75204007D01*
X112197575Y-75059771D01*
X112197572Y-75059767D01*
X112087486Y-74949681D01*
X112054001Y-74888358D01*
X112058985Y-74818666D01*
X112100857Y-74762733D01*
X112166321Y-74738316D01*
X112175167Y-74738000D01*
X113274903Y-74738000D01*
X113341942Y-74757685D01*
G37*
%TD.AperFunction*%
%TA.AperFunction,Conductor*%
G36*
X129076207Y-64945185D02*
G01*
X129121962Y-64997989D01*
X129131906Y-65067147D01*
X129102881Y-65130703D01*
X129086482Y-65146446D01*
X129072916Y-65157264D01*
X128882265Y-65347915D01*
X128714161Y-65558712D01*
X128570714Y-65787005D01*
X128453734Y-66029917D01*
X128364687Y-66284397D01*
X128364684Y-66284405D01*
X128304688Y-66547268D01*
X128304686Y-66547280D01*
X128274500Y-66815186D01*
X128274500Y-67084813D01*
X128304686Y-67352719D01*
X128304688Y-67352731D01*
X128364684Y-67615594D01*
X128364687Y-67615602D01*
X128453734Y-67870082D01*
X128570714Y-68112994D01*
X128570716Y-68112997D01*
X128714162Y-68341289D01*
X128882266Y-68552085D01*
X129072915Y-68742734D01*
X129283711Y-68910838D01*
X129512003Y-69054284D01*
X129754921Y-69171267D01*
X129946049Y-69238145D01*
X130009397Y-69260312D01*
X130009405Y-69260315D01*
X130009408Y-69260315D01*
X130009409Y-69260316D01*
X130272268Y-69320312D01*
X130540187Y-69350499D01*
X130540188Y-69350500D01*
X130540191Y-69350500D01*
X130809812Y-69350500D01*
X130809812Y-69350499D01*
X131077732Y-69320312D01*
X131340591Y-69260316D01*
X131595079Y-69171267D01*
X131837997Y-69054284D01*
X132066289Y-68910838D01*
X132277085Y-68742734D01*
X132467734Y-68552085D01*
X132635838Y-68341289D01*
X132779284Y-68112997D01*
X132896267Y-67870079D01*
X132985316Y-67615591D01*
X133045312Y-67352732D01*
X133075500Y-67084809D01*
X133075500Y-66815191D01*
X133045312Y-66547268D01*
X132985316Y-66284409D01*
X132896267Y-66029921D01*
X132779284Y-65787003D01*
X132635838Y-65558711D01*
X132467734Y-65347915D01*
X132277085Y-65157266D01*
X132277083Y-65157264D01*
X132263518Y-65146446D01*
X132223378Y-65089257D01*
X132220529Y-65019446D01*
X132255876Y-64959176D01*
X132318195Y-64927584D01*
X132340832Y-64925500D01*
X134325500Y-64925500D01*
X134392539Y-64945185D01*
X134438294Y-64997989D01*
X134449500Y-65049500D01*
X134449500Y-90525500D01*
X134429815Y-90592539D01*
X134377011Y-90638294D01*
X134325500Y-90649500D01*
X132246784Y-90649500D01*
X132179745Y-90629815D01*
X132133990Y-90577011D01*
X132124046Y-90507853D01*
X132153071Y-90444297D01*
X132169471Y-90428553D01*
X132277085Y-90342734D01*
X132467734Y-90152085D01*
X132635838Y-89941289D01*
X132779284Y-89712997D01*
X132896267Y-89470079D01*
X132985316Y-89215591D01*
X133045312Y-88952732D01*
X133075500Y-88684809D01*
X133075500Y-88415191D01*
X133045312Y-88147268D01*
X132985316Y-87884409D01*
X132896267Y-87629921D01*
X132779284Y-87387003D01*
X132635838Y-87158711D01*
X132467734Y-86947915D01*
X132277085Y-86757266D01*
X132066289Y-86589162D01*
X131837997Y-86445716D01*
X131837994Y-86445714D01*
X131595082Y-86328734D01*
X131340602Y-86239687D01*
X131340594Y-86239684D01*
X131143446Y-86194687D01*
X131077732Y-86179688D01*
X131077728Y-86179687D01*
X131077719Y-86179686D01*
X130809813Y-86149500D01*
X130809809Y-86149500D01*
X130540191Y-86149500D01*
X130540186Y-86149500D01*
X130272280Y-86179686D01*
X130272268Y-86179688D01*
X130009405Y-86239684D01*
X130009397Y-86239687D01*
X129754917Y-86328734D01*
X129512005Y-86445714D01*
X129283712Y-86589161D01*
X129072915Y-86757265D01*
X128882265Y-86947915D01*
X128714161Y-87158712D01*
X128570714Y-87387005D01*
X128453734Y-87629917D01*
X128364687Y-87884397D01*
X128364684Y-87884405D01*
X128304688Y-88147268D01*
X128304686Y-88147280D01*
X128274500Y-88415186D01*
X128274500Y-88684813D01*
X128304686Y-88952719D01*
X128304688Y-88952731D01*
X128364684Y-89215594D01*
X128364687Y-89215602D01*
X128453734Y-89470082D01*
X128570714Y-89712994D01*
X128570716Y-89712997D01*
X128714162Y-89941289D01*
X128750500Y-89986855D01*
X128882265Y-90152084D01*
X129072915Y-90342734D01*
X129180529Y-90428553D01*
X129220669Y-90485741D01*
X129223519Y-90555553D01*
X129188174Y-90615823D01*
X129125855Y-90647416D01*
X129103216Y-90649500D01*
X92896784Y-90649500D01*
X92829745Y-90629815D01*
X92783990Y-90577011D01*
X92774046Y-90507853D01*
X92803071Y-90444297D01*
X92819471Y-90428553D01*
X92927085Y-90342734D01*
X93117734Y-90152085D01*
X93285838Y-89941289D01*
X93429284Y-89712997D01*
X93546267Y-89470079D01*
X93635316Y-89215591D01*
X93695312Y-88952732D01*
X93725500Y-88684809D01*
X93725500Y-88485822D01*
X108850001Y-88485822D01*
X108860144Y-88585107D01*
X108913452Y-88745981D01*
X108913457Y-88745992D01*
X109002424Y-88890228D01*
X109002427Y-88890232D01*
X109122267Y-89010072D01*
X109122271Y-89010075D01*
X109266507Y-89099042D01*
X109266518Y-89099047D01*
X109427393Y-89152355D01*
X109526683Y-89162499D01*
X109550000Y-89162498D01*
X109550000Y-88437500D01*
X108850001Y-88437500D01*
X108850001Y-88485822D01*
X93725500Y-88485822D01*
X93725500Y-88415191D01*
X93725499Y-88415186D01*
X93723791Y-88400023D01*
X93723791Y-88400022D01*
X93695313Y-88147280D01*
X93695312Y-88147268D01*
X93641810Y-87912861D01*
X93636405Y-87889177D01*
X108850000Y-87889177D01*
X108850000Y-87937500D01*
X109550000Y-87937500D01*
X109550000Y-87212499D01*
X109526693Y-87212500D01*
X109526674Y-87212501D01*
X109427392Y-87222644D01*
X109266518Y-87275952D01*
X109266507Y-87275957D01*
X109122271Y-87364924D01*
X109122267Y-87364927D01*
X109002427Y-87484767D01*
X109002424Y-87484771D01*
X108913457Y-87629007D01*
X108913452Y-87629018D01*
X108860144Y-87789893D01*
X108850000Y-87889177D01*
X93636405Y-87889177D01*
X93635317Y-87884412D01*
X93635312Y-87884397D01*
X93595074Y-87769404D01*
X93546267Y-87629921D01*
X93429284Y-87387003D01*
X93285838Y-87158711D01*
X93117734Y-86947915D01*
X92927085Y-86757266D01*
X92716289Y-86589162D01*
X92487997Y-86445716D01*
X92487994Y-86445714D01*
X92245082Y-86328734D01*
X91990602Y-86239687D01*
X91990594Y-86239684D01*
X91793446Y-86194687D01*
X91727732Y-86179688D01*
X91727728Y-86179687D01*
X91727719Y-86179686D01*
X91459813Y-86149500D01*
X91459809Y-86149500D01*
X91190191Y-86149500D01*
X91190186Y-86149500D01*
X90922280Y-86179686D01*
X90922268Y-86179688D01*
X90659405Y-86239684D01*
X90659397Y-86239687D01*
X90404917Y-86328734D01*
X90162005Y-86445714D01*
X89933712Y-86589161D01*
X89722915Y-86757265D01*
X89612181Y-86868000D01*
X89550858Y-86901485D01*
X89481166Y-86896501D01*
X89425233Y-86854629D01*
X89400816Y-86789165D01*
X89400500Y-86780319D01*
X89400500Y-83701405D01*
X97450000Y-83701405D01*
X97450000Y-83963594D01*
X97484220Y-84223509D01*
X97484222Y-84223520D01*
X97552075Y-84476755D01*
X97652404Y-84718971D01*
X97652409Y-84718982D01*
X97783488Y-84946016D01*
X97783494Y-84946024D01*
X97870080Y-85058865D01*
X98477912Y-84451032D01*
X98572829Y-84581675D01*
X98700825Y-84709671D01*
X98831465Y-84804586D01*
X98223633Y-85412417D01*
X98223633Y-85412418D01*
X98336475Y-85499005D01*
X98336483Y-85499011D01*
X98563517Y-85630090D01*
X98563528Y-85630095D01*
X98805744Y-85730424D01*
X99058979Y-85798277D01*
X99058990Y-85798279D01*
X99318905Y-85832499D01*
X99318920Y-85832500D01*
X99581080Y-85832500D01*
X99581094Y-85832499D01*
X99841009Y-85798279D01*
X99841020Y-85798277D01*
X100094255Y-85730424D01*
X100336471Y-85630095D01*
X100336482Y-85630090D01*
X100563516Y-85499011D01*
X100563534Y-85498999D01*
X100676365Y-85412419D01*
X100676365Y-85412417D01*
X100068534Y-84804586D01*
X100199175Y-84709671D01*
X100327171Y-84581675D01*
X100422086Y-84451034D01*
X101029917Y-85058865D01*
X101029919Y-85058865D01*
X101116499Y-84946034D01*
X101116511Y-84946016D01*
X101247590Y-84718982D01*
X101247595Y-84718971D01*
X101347924Y-84476755D01*
X101415777Y-84223520D01*
X101415779Y-84223509D01*
X101449999Y-83963594D01*
X101450000Y-83963580D01*
X101450000Y-83701419D01*
X101449999Y-83701405D01*
X101415779Y-83441490D01*
X101415777Y-83441479D01*
X101347924Y-83188244D01*
X101247595Y-82946028D01*
X101247590Y-82946017D01*
X101116511Y-82718983D01*
X101116505Y-82718975D01*
X101029918Y-82606133D01*
X101029917Y-82606133D01*
X100422085Y-83213965D01*
X100327171Y-83083325D01*
X100199175Y-82955329D01*
X100068532Y-82860412D01*
X100676365Y-82252580D01*
X100563524Y-82165994D01*
X100563516Y-82165988D01*
X100336482Y-82034909D01*
X100336471Y-82034904D01*
X100094255Y-81934575D01*
X99841020Y-81866722D01*
X99841009Y-81866720D01*
X99581094Y-81832500D01*
X99318905Y-81832500D01*
X99058990Y-81866720D01*
X99058979Y-81866722D01*
X98805744Y-81934575D01*
X98563528Y-82034904D01*
X98563517Y-82034909D01*
X98336471Y-82165996D01*
X98223633Y-82252579D01*
X98223633Y-82252580D01*
X98831466Y-82860413D01*
X98700825Y-82955329D01*
X98572829Y-83083325D01*
X98477913Y-83213966D01*
X97870080Y-82606133D01*
X97870079Y-82606133D01*
X97783496Y-82718971D01*
X97652409Y-82946017D01*
X97652404Y-82946028D01*
X97552075Y-83188244D01*
X97484222Y-83441479D01*
X97484220Y-83441490D01*
X97450000Y-83701405D01*
X89400500Y-83701405D01*
X89400500Y-81187486D01*
X101130001Y-81187486D01*
X101140494Y-81290197D01*
X101195641Y-81456619D01*
X101195643Y-81456624D01*
X101287684Y-81605845D01*
X101411654Y-81729815D01*
X101560875Y-81821856D01*
X101560880Y-81821858D01*
X101727302Y-81877005D01*
X101727309Y-81877006D01*
X101830019Y-81887499D01*
X102879999Y-81887499D01*
X103380000Y-81887499D01*
X104429972Y-81887499D01*
X104429986Y-81887498D01*
X104532697Y-81877005D01*
X104699119Y-81821858D01*
X104699124Y-81821856D01*
X104848345Y-81729815D01*
X104972315Y-81605845D01*
X105064356Y-81456624D01*
X105064358Y-81456619D01*
X105119505Y-81290197D01*
X105119506Y-81290190D01*
X105129999Y-81187486D01*
X105130000Y-81187473D01*
X105130000Y-81012500D01*
X103380000Y-81012500D01*
X103380000Y-81887499D01*
X102879999Y-81887499D01*
X102880000Y-81887498D01*
X102880000Y-81012500D01*
X101130001Y-81012500D01*
X101130001Y-81187486D01*
X89400500Y-81187486D01*
X89400500Y-80337513D01*
X101130000Y-80337513D01*
X101130000Y-80512500D01*
X102880000Y-80512500D01*
X103380000Y-80512500D01*
X105129999Y-80512500D01*
X105129999Y-80337528D01*
X105129998Y-80337513D01*
X105119505Y-80234802D01*
X105064358Y-80068380D01*
X105064356Y-80068375D01*
X104972315Y-79919154D01*
X104848345Y-79795184D01*
X104699124Y-79703143D01*
X104699119Y-79703141D01*
X104532697Y-79647994D01*
X104532690Y-79647993D01*
X104429986Y-79637500D01*
X103380000Y-79637500D01*
X103380000Y-80512500D01*
X102880000Y-80512500D01*
X102880000Y-79637500D01*
X101830028Y-79637500D01*
X101830012Y-79637501D01*
X101727302Y-79647994D01*
X101560880Y-79703141D01*
X101560875Y-79703143D01*
X101411654Y-79795184D01*
X101287684Y-79919154D01*
X101195643Y-80068375D01*
X101195641Y-80068380D01*
X101140494Y-80234802D01*
X101140493Y-80234809D01*
X101130000Y-80337513D01*
X89400500Y-80337513D01*
X89400500Y-73337483D01*
X101129500Y-73337483D01*
X101129500Y-74187501D01*
X101129501Y-74187519D01*
X101140000Y-74290296D01*
X101140001Y-74290299D01*
X101195185Y-74456831D01*
X101195186Y-74456834D01*
X101287288Y-74606156D01*
X101411344Y-74730212D01*
X101560666Y-74822314D01*
X101727203Y-74877499D01*
X101829991Y-74888000D01*
X104430008Y-74887999D01*
X104532797Y-74877499D01*
X104699334Y-74822314D01*
X104795931Y-74762733D01*
X104806100Y-74756461D01*
X104871196Y-74738000D01*
X109074126Y-74738000D01*
X109141165Y-74757685D01*
X109186920Y-74810489D01*
X109196864Y-74879647D01*
X109167839Y-74943203D01*
X109161807Y-74949681D01*
X109052032Y-75059455D01*
X109052029Y-75059459D01*
X108963001Y-75203794D01*
X108962996Y-75203805D01*
X108909651Y-75364790D01*
X108899500Y-75464147D01*
X108899500Y-76060837D01*
X108899501Y-76060855D01*
X108909650Y-76160207D01*
X108909651Y-76160210D01*
X108962996Y-76321194D01*
X108963001Y-76321205D01*
X109052029Y-76465540D01*
X109052032Y-76465544D01*
X109171956Y-76585468D01*
X109190596Y-76596965D01*
X109237321Y-76648912D01*
X109249500Y-76702504D01*
X109249500Y-76968308D01*
X109229815Y-77035347D01*
X109195003Y-77070999D01*
X109055147Y-77165655D01*
X109055142Y-77165659D01*
X108903159Y-77317642D01*
X108903151Y-77317651D01*
X108782677Y-77495654D01*
X108698066Y-77693239D01*
X108698065Y-77693244D01*
X108672293Y-77811716D01*
X108652376Y-77903274D01*
X108649500Y-77951552D01*
X108649500Y-77951564D01*
X108649500Y-79133403D01*
X108629815Y-79200442D01*
X108577011Y-79246197D01*
X108507853Y-79256141D01*
X108444297Y-79227116D01*
X108437819Y-79221084D01*
X105166818Y-75950083D01*
X105133333Y-75888760D01*
X105130499Y-75862402D01*
X105130499Y-75837498D01*
X105130498Y-75837481D01*
X105119999Y-75734703D01*
X105119998Y-75734700D01*
X105101696Y-75679469D01*
X105064814Y-75568166D01*
X104972712Y-75418844D01*
X104848656Y-75294788D01*
X104745715Y-75231294D01*
X104699336Y-75202687D01*
X104699331Y-75202685D01*
X104697862Y-75202198D01*
X104532797Y-75147501D01*
X104532795Y-75147500D01*
X104430010Y-75137000D01*
X101829998Y-75137000D01*
X101829981Y-75137001D01*
X101727203Y-75147500D01*
X101727200Y-75147501D01*
X101560668Y-75202685D01*
X101560663Y-75202687D01*
X101411342Y-75294789D01*
X101287289Y-75418842D01*
X101195187Y-75568163D01*
X101195186Y-75568166D01*
X101140001Y-75734703D01*
X101140001Y-75734704D01*
X101140000Y-75734704D01*
X101129500Y-75837483D01*
X101129500Y-76687501D01*
X101129501Y-76687519D01*
X101140000Y-76790296D01*
X101140001Y-76790299D01*
X101167240Y-76872500D01*
X101195186Y-76956834D01*
X101281703Y-77097102D01*
X101287289Y-77106157D01*
X101355951Y-77174819D01*
X101389436Y-77236142D01*
X101384452Y-77305834D01*
X101355951Y-77350181D01*
X101287289Y-77418842D01*
X101195187Y-77568163D01*
X101195186Y-77568166D01*
X101140001Y-77734703D01*
X101140001Y-77734704D01*
X101140000Y-77734704D01*
X101129500Y-77837483D01*
X101129500Y-78687501D01*
X101129501Y-78687519D01*
X101140000Y-78790296D01*
X101140001Y-78790299D01*
X101195185Y-78956831D01*
X101195187Y-78956836D01*
X101208308Y-78978109D01*
X101287288Y-79106156D01*
X101411344Y-79230212D01*
X101560666Y-79322314D01*
X101727203Y-79377499D01*
X101829991Y-79388000D01*
X104430008Y-79387999D01*
X104532797Y-79377499D01*
X104699334Y-79322314D01*
X104848656Y-79230212D01*
X104972712Y-79106156D01*
X104974960Y-79102510D01*
X104977158Y-79100533D01*
X104977195Y-79100487D01*
X104977202Y-79100493D01*
X105026903Y-79055783D01*
X105095865Y-79044555D01*
X105159949Y-79072394D01*
X105168183Y-79079918D01*
X108931284Y-82843020D01*
X108931286Y-82843021D01*
X108931290Y-82843024D01*
X109005728Y-82886000D01*
X109068216Y-82922077D01*
X109220943Y-82963001D01*
X109220945Y-82963001D01*
X109386654Y-82963001D01*
X109386670Y-82963000D01*
X109925500Y-82963000D01*
X109934185Y-82965550D01*
X109943147Y-82964262D01*
X109967187Y-82975240D01*
X109992539Y-82982685D01*
X109998466Y-82989525D01*
X110006703Y-82993287D01*
X110020992Y-83015521D01*
X110038294Y-83035489D01*
X110040581Y-83046003D01*
X110044477Y-83052065D01*
X110049500Y-83087000D01*
X110049500Y-83288000D01*
X110029815Y-83355039D01*
X109977011Y-83400794D01*
X109925500Y-83412000D01*
X109689052Y-83412000D01*
X109640774Y-83414876D01*
X109640769Y-83414876D01*
X109640768Y-83414877D01*
X109430750Y-83460563D01*
X109430739Y-83460566D01*
X109233154Y-83545177D01*
X109055151Y-83665651D01*
X109055142Y-83665659D01*
X108903159Y-83817642D01*
X108903151Y-83817651D01*
X108782677Y-83995654D01*
X108698066Y-84193239D01*
X108698063Y-84193250D01*
X108680509Y-84273947D01*
X108652376Y-84403274D01*
X108649500Y-84451552D01*
X108649500Y-85873448D01*
X108652376Y-85921726D01*
X108652376Y-85921730D01*
X108652377Y-85921731D01*
X108698063Y-86131749D01*
X108698066Y-86131760D01*
X108782677Y-86329345D01*
X108903151Y-86507348D01*
X108903159Y-86507357D01*
X109055142Y-86659340D01*
X109055151Y-86659348D01*
X109184460Y-86746865D01*
X109233152Y-86779821D01*
X109430741Y-86864434D01*
X109640774Y-86910124D01*
X109689052Y-86913000D01*
X109925500Y-86913000D01*
X109992539Y-86932685D01*
X110038294Y-86985489D01*
X110049500Y-87037000D01*
X110049500Y-87408439D01*
X110049499Y-87408443D01*
X110049499Y-87566557D01*
X110049972Y-87568323D01*
X110050000Y-87578143D01*
X110049981Y-87578207D01*
X110050000Y-87578492D01*
X110050000Y-89162499D01*
X110073308Y-89162499D01*
X110073322Y-89162498D01*
X110172607Y-89152355D01*
X110333481Y-89099047D01*
X110333492Y-89099042D01*
X110477731Y-89010073D01*
X110486959Y-89000845D01*
X110548279Y-88967356D01*
X110617971Y-88972335D01*
X110662327Y-89000839D01*
X110671955Y-89010467D01*
X110671959Y-89010470D01*
X110816294Y-89099498D01*
X110816297Y-89099499D01*
X110816303Y-89099503D01*
X110977292Y-89152849D01*
X111076655Y-89163000D01*
X111623344Y-89162999D01*
X111623352Y-89162998D01*
X111623355Y-89162998D01*
X111677760Y-89157440D01*
X111722708Y-89152849D01*
X111883697Y-89099503D01*
X112028044Y-89010468D01*
X112147968Y-88890544D01*
X112237003Y-88746197D01*
X112290349Y-88585208D01*
X112300500Y-88485845D01*
X112300499Y-87889156D01*
X112300014Y-87884412D01*
X112290349Y-87789792D01*
X112290348Y-87789789D01*
X112283593Y-87769404D01*
X112237003Y-87628803D01*
X112236999Y-87628797D01*
X112236998Y-87628794D01*
X112147970Y-87484459D01*
X112147967Y-87484455D01*
X112028044Y-87364532D01*
X112028040Y-87364529D01*
X111883705Y-87275501D01*
X111883699Y-87275498D01*
X111883697Y-87275497D01*
X111883694Y-87275496D01*
X111722709Y-87222151D01*
X111623352Y-87212000D01*
X111623345Y-87212000D01*
X111374500Y-87212000D01*
X111365814Y-87209449D01*
X111356853Y-87210738D01*
X111332812Y-87199759D01*
X111307461Y-87192315D01*
X111301533Y-87185474D01*
X111293297Y-87181713D01*
X111279007Y-87159478D01*
X111261706Y-87139511D01*
X111259418Y-87128996D01*
X111255523Y-87122935D01*
X111250500Y-87088000D01*
X111250500Y-87037000D01*
X111270185Y-86969961D01*
X111322989Y-86924206D01*
X111374500Y-86913000D01*
X111610936Y-86913000D01*
X111610948Y-86913000D01*
X111659226Y-86910124D01*
X111869259Y-86864434D01*
X112066848Y-86779821D01*
X112244855Y-86659343D01*
X112396843Y-86507355D01*
X112517321Y-86329348D01*
X112601934Y-86131759D01*
X112647624Y-85921726D01*
X112650500Y-85873448D01*
X112650500Y-84451552D01*
X112647624Y-84403274D01*
X112601934Y-84193241D01*
X112517321Y-83995652D01*
X112406897Y-83832500D01*
X112406222Y-83831502D01*
X112384948Y-83764950D01*
X112403032Y-83697461D01*
X112454732Y-83650463D01*
X112508913Y-83638000D01*
X117663331Y-83638000D01*
X117663347Y-83638001D01*
X117670943Y-83638001D01*
X117829054Y-83638001D01*
X117829057Y-83638001D01*
X117981785Y-83597077D01*
X118031904Y-83568139D01*
X118118716Y-83518020D01*
X118212418Y-83424317D01*
X118273739Y-83390834D01*
X118300098Y-83388000D01*
X119090686Y-83388000D01*
X119090694Y-83388000D01*
X119127569Y-83385098D01*
X119127571Y-83385097D01*
X119127573Y-83385097D01*
X119169191Y-83373005D01*
X119285398Y-83339244D01*
X119426865Y-83255581D01*
X119543081Y-83139365D01*
X119626744Y-82997898D01*
X119670023Y-82848932D01*
X119672597Y-82840073D01*
X119672598Y-82840067D01*
X119675499Y-82803201D01*
X119675500Y-82803194D01*
X119675500Y-82371806D01*
X119672598Y-82334931D01*
X119666226Y-82313000D01*
X119626745Y-82177106D01*
X119626744Y-82177103D01*
X119626744Y-82177102D01*
X119543081Y-82035635D01*
X119543078Y-82035632D01*
X119538298Y-82029469D01*
X119540750Y-82027566D01*
X119514155Y-81978921D01*
X119519104Y-81909226D01*
X119528939Y-81888770D01*
X119536805Y-81875640D01*
X119543081Y-81869365D01*
X119626744Y-81727898D01*
X119628080Y-81723297D01*
X119634628Y-81712369D01*
X119641103Y-81706391D01*
X119653321Y-81688413D01*
X119655519Y-81686216D01*
X119655519Y-81686214D01*
X119665720Y-81676015D01*
X119665727Y-81676005D01*
X119833506Y-81508227D01*
X119833511Y-81508223D01*
X119843714Y-81498019D01*
X119843716Y-81498019D01*
X119955520Y-81386215D01*
X120034577Y-81249283D01*
X120073103Y-81105501D01*
X120073103Y-81105500D01*
X120073106Y-81105500D01*
X120073106Y-81105487D01*
X120075500Y-81096557D01*
X120075500Y-80938442D01*
X120075500Y-79796007D01*
X120075501Y-79795994D01*
X120075501Y-79627893D01*
X120075501Y-79627891D01*
X120034577Y-79475163D01*
X119984253Y-79388000D01*
X119955520Y-79338232D01*
X119843716Y-79226428D01*
X119843715Y-79226427D01*
X119839385Y-79222097D01*
X119839374Y-79222087D01*
X119711178Y-79093891D01*
X119677693Y-79032568D01*
X119675242Y-78996476D01*
X119675326Y-78995397D01*
X119675500Y-78993194D01*
X119675500Y-78561806D01*
X119672598Y-78524931D01*
X119626744Y-78367102D01*
X119543081Y-78225635D01*
X119543078Y-78225632D01*
X119538298Y-78219469D01*
X119540750Y-78217566D01*
X119514155Y-78168921D01*
X119519104Y-78099226D01*
X119539940Y-78066804D01*
X119538298Y-78065531D01*
X119543075Y-78059370D01*
X119543081Y-78059365D01*
X119626744Y-77917898D01*
X119669423Y-77770997D01*
X119672597Y-77760073D01*
X119672598Y-77760067D01*
X119675499Y-77723201D01*
X119675500Y-77723194D01*
X119675500Y-77337598D01*
X119684143Y-77308163D01*
X119690666Y-77278174D01*
X119694422Y-77273156D01*
X119695185Y-77270559D01*
X119711816Y-77249919D01*
X119755520Y-77206216D01*
X119755521Y-77206213D01*
X121558410Y-75403324D01*
X121619729Y-75369842D01*
X121689421Y-75374826D01*
X121745354Y-75416698D01*
X121752819Y-75427887D01*
X121806916Y-75519361D01*
X121811702Y-75525531D01*
X121809256Y-75527427D01*
X121835857Y-75576142D01*
X121830873Y-75645834D01*
X121810069Y-75678203D01*
X121811702Y-75679469D01*
X121806917Y-75685637D01*
X121723255Y-75827103D01*
X121723254Y-75827106D01*
X121677402Y-75984926D01*
X121677401Y-75984932D01*
X121674500Y-76021798D01*
X121674500Y-76453201D01*
X121677401Y-76490067D01*
X121677402Y-76490073D01*
X121723254Y-76647893D01*
X121723255Y-76647896D01*
X121723256Y-76647898D01*
X121738721Y-76674048D01*
X121806917Y-76789362D01*
X121811702Y-76795531D01*
X121809256Y-76797427D01*
X121835857Y-76846142D01*
X121830873Y-76915834D01*
X121810069Y-76948203D01*
X121811702Y-76949469D01*
X121806917Y-76955637D01*
X121723255Y-77097103D01*
X121723254Y-77097106D01*
X121677402Y-77254926D01*
X121677401Y-77254932D01*
X121674500Y-77291798D01*
X121674500Y-77723201D01*
X121677401Y-77760067D01*
X121677402Y-77760073D01*
X121723254Y-77917893D01*
X121723255Y-77917896D01*
X121723256Y-77917898D01*
X121730759Y-77930585D01*
X121806917Y-78059362D01*
X121811702Y-78065531D01*
X121809256Y-78067427D01*
X121835857Y-78116142D01*
X121830873Y-78185834D01*
X121810069Y-78218203D01*
X121811702Y-78219469D01*
X121806917Y-78225637D01*
X121723255Y-78367103D01*
X121723254Y-78367106D01*
X121677402Y-78524926D01*
X121677401Y-78524932D01*
X121674500Y-78561798D01*
X121674500Y-78993201D01*
X121677401Y-79030067D01*
X121677402Y-79030073D01*
X121723254Y-79187893D01*
X121723255Y-79187896D01*
X121723256Y-79187898D01*
X121746449Y-79227116D01*
X121806917Y-79329362D01*
X121811702Y-79335531D01*
X121809256Y-79337427D01*
X121835857Y-79386142D01*
X121830873Y-79455834D01*
X121810069Y-79488203D01*
X121811702Y-79489469D01*
X121806917Y-79495637D01*
X121723255Y-79637103D01*
X121723254Y-79637106D01*
X121677402Y-79794926D01*
X121677401Y-79794932D01*
X121674500Y-79831798D01*
X121674500Y-80263201D01*
X121677401Y-80300067D01*
X121677402Y-80300073D01*
X121723254Y-80457893D01*
X121723255Y-80457896D01*
X121806917Y-80599362D01*
X121811702Y-80605531D01*
X121809256Y-80607427D01*
X121835857Y-80656142D01*
X121830873Y-80725834D01*
X121810069Y-80758203D01*
X121811702Y-80759469D01*
X121806917Y-80765637D01*
X121723255Y-80907103D01*
X121723254Y-80907106D01*
X121677402Y-81064926D01*
X121677401Y-81064932D01*
X121674500Y-81101798D01*
X121674500Y-81533201D01*
X121677401Y-81570067D01*
X121677402Y-81570073D01*
X121723254Y-81727893D01*
X121723255Y-81727896D01*
X121723256Y-81727898D01*
X121751197Y-81775144D01*
X121806917Y-81869362D01*
X121811702Y-81875531D01*
X121809256Y-81877427D01*
X121835857Y-81926142D01*
X121830873Y-81995834D01*
X121810069Y-82028203D01*
X121811702Y-82029469D01*
X121806917Y-82035637D01*
X121723255Y-82177103D01*
X121723254Y-82177106D01*
X121677402Y-82334926D01*
X121677401Y-82334932D01*
X121674500Y-82371798D01*
X121674500Y-82803201D01*
X121677401Y-82840067D01*
X121677402Y-82840073D01*
X121723254Y-82997893D01*
X121723255Y-82997896D01*
X121806917Y-83139362D01*
X121806923Y-83139370D01*
X121923129Y-83255576D01*
X121923133Y-83255579D01*
X121923135Y-83255581D01*
X122064602Y-83339244D01*
X122106224Y-83351336D01*
X122222426Y-83385097D01*
X122222429Y-83385097D01*
X122222431Y-83385098D01*
X122259306Y-83388000D01*
X122259314Y-83388000D01*
X124040686Y-83388000D01*
X124040694Y-83388000D01*
X124058536Y-83386595D01*
X124061140Y-83386391D01*
X124065969Y-83386010D01*
X124077569Y-83385098D01*
X124077571Y-83385097D01*
X124077573Y-83385097D01*
X124119191Y-83373005D01*
X124235398Y-83339244D01*
X124376865Y-83255581D01*
X124493081Y-83139365D01*
X124576744Y-82997898D01*
X124620023Y-82848932D01*
X124622597Y-82840073D01*
X124622598Y-82840067D01*
X124625499Y-82803201D01*
X124625500Y-82803194D01*
X124625500Y-82371806D01*
X124622598Y-82334931D01*
X124616226Y-82313000D01*
X124576745Y-82177106D01*
X124576744Y-82177103D01*
X124576744Y-82177102D01*
X124493081Y-82035635D01*
X124493078Y-82035632D01*
X124488298Y-82029469D01*
X124490750Y-82027566D01*
X124464155Y-81978921D01*
X124469104Y-81909226D01*
X124489940Y-81876804D01*
X124488298Y-81875531D01*
X124493075Y-81869370D01*
X124493081Y-81869365D01*
X124576744Y-81727898D01*
X124622598Y-81570069D01*
X124625500Y-81533194D01*
X124625500Y-81101806D01*
X124622598Y-81064931D01*
X124600721Y-80989632D01*
X124576745Y-80907106D01*
X124576744Y-80907103D01*
X124576744Y-80907102D01*
X124493081Y-80765635D01*
X124493078Y-80765632D01*
X124488298Y-80759469D01*
X124490750Y-80757566D01*
X124464155Y-80708921D01*
X124469104Y-80639226D01*
X124489940Y-80606804D01*
X124488298Y-80605531D01*
X124493075Y-80599370D01*
X124493081Y-80599365D01*
X124576744Y-80457898D01*
X124622598Y-80300069D01*
X124625500Y-80263194D01*
X124625500Y-79831806D01*
X124622598Y-79794931D01*
X124621861Y-79792395D01*
X124576860Y-79637501D01*
X124576744Y-79637102D01*
X124493081Y-79495635D01*
X124493078Y-79495632D01*
X124488298Y-79489469D01*
X124490750Y-79487566D01*
X124464155Y-79438921D01*
X124469104Y-79369226D01*
X124489940Y-79336804D01*
X124488298Y-79335531D01*
X124493075Y-79329370D01*
X124493081Y-79329365D01*
X124576744Y-79187898D01*
X124622598Y-79030069D01*
X124625500Y-78993194D01*
X124625500Y-78561806D01*
X124622598Y-78524931D01*
X124576744Y-78367102D01*
X124493081Y-78225635D01*
X124493078Y-78225632D01*
X124488298Y-78219469D01*
X124490750Y-78217566D01*
X124464155Y-78168921D01*
X124469104Y-78099226D01*
X124489940Y-78066804D01*
X124488298Y-78065531D01*
X124493075Y-78059370D01*
X124493081Y-78059365D01*
X124576744Y-77917898D01*
X124619423Y-77770997D01*
X124622597Y-77760073D01*
X124622598Y-77760067D01*
X124625499Y-77723201D01*
X124625500Y-77723194D01*
X124625500Y-77291806D01*
X124622598Y-77254931D01*
X124617139Y-77236142D01*
X124576745Y-77097106D01*
X124576744Y-77097103D01*
X124576744Y-77097102D01*
X124493081Y-76955635D01*
X124493078Y-76955632D01*
X124488298Y-76949469D01*
X124490750Y-76947566D01*
X124464155Y-76898921D01*
X124469104Y-76829226D01*
X124489940Y-76796804D01*
X124488298Y-76795531D01*
X124493075Y-76789370D01*
X124493081Y-76789365D01*
X124576744Y-76647898D01*
X124622598Y-76490069D01*
X124625500Y-76453194D01*
X124625500Y-76021806D01*
X124622598Y-75984931D01*
X124609547Y-75940011D01*
X124579764Y-75837498D01*
X124576744Y-75827102D01*
X124493081Y-75685635D01*
X124493078Y-75685632D01*
X124488298Y-75679469D01*
X124490750Y-75677566D01*
X124464155Y-75628921D01*
X124469104Y-75559226D01*
X124489940Y-75526804D01*
X124488298Y-75525531D01*
X124493075Y-75519370D01*
X124493081Y-75519365D01*
X124576744Y-75377898D01*
X124622598Y-75220069D01*
X124625500Y-75183194D01*
X124625500Y-74751806D01*
X124622598Y-74714931D01*
X124576744Y-74557102D01*
X124493081Y-74415635D01*
X124493078Y-74415632D01*
X124488298Y-74409469D01*
X124490750Y-74407566D01*
X124464155Y-74358921D01*
X124469104Y-74289226D01*
X124489940Y-74256804D01*
X124488298Y-74255531D01*
X124493075Y-74249370D01*
X124493081Y-74249365D01*
X124576744Y-74107898D01*
X124622598Y-73950069D01*
X124625500Y-73913194D01*
X124625500Y-73481806D01*
X124622598Y-73444931D01*
X124605663Y-73386642D01*
X124576745Y-73287106D01*
X124576744Y-73287103D01*
X124576744Y-73287102D01*
X124493081Y-73145635D01*
X124493079Y-73145633D01*
X124493076Y-73145629D01*
X124376870Y-73029423D01*
X124376862Y-73029417D01*
X124272610Y-72967763D01*
X124235398Y-72945756D01*
X124235397Y-72945755D01*
X124235396Y-72945755D01*
X124235393Y-72945754D01*
X124077573Y-72899902D01*
X124077567Y-72899901D01*
X124040701Y-72897000D01*
X124040694Y-72897000D01*
X122259306Y-72897000D01*
X122259298Y-72897000D01*
X122222432Y-72899901D01*
X122222426Y-72899902D01*
X122064606Y-72945754D01*
X122064603Y-72945755D01*
X121923137Y-73029417D01*
X121923129Y-73029423D01*
X121806923Y-73145629D01*
X121806917Y-73145637D01*
X121723255Y-73287103D01*
X121723254Y-73287106D01*
X121677402Y-73444926D01*
X121677401Y-73444932D01*
X121674500Y-73481798D01*
X121674500Y-73537402D01*
X121654815Y-73604441D01*
X121638181Y-73625083D01*
X119862335Y-75400928D01*
X119801012Y-75434413D01*
X119731320Y-75429429D01*
X119675387Y-75387557D01*
X119650970Y-75322093D01*
X119655578Y-75278651D01*
X119666081Y-75242500D01*
X119672598Y-75220069D01*
X119675500Y-75183194D01*
X119675500Y-74751806D01*
X119672598Y-74714931D01*
X119626744Y-74557102D01*
X119543081Y-74415635D01*
X119543078Y-74415632D01*
X119538298Y-74409469D01*
X119540635Y-74407655D01*
X119513798Y-74358550D01*
X119518756Y-74288856D01*
X119539554Y-74256498D01*
X119537903Y-74255217D01*
X119542686Y-74249050D01*
X119626281Y-74107698D01*
X119672100Y-73949986D01*
X119672295Y-73947501D01*
X119672295Y-73947500D01*
X118324000Y-73947500D01*
X118256961Y-73927815D01*
X118211206Y-73875011D01*
X118200000Y-73823500D01*
X118200000Y-73697500D01*
X118074000Y-73697500D01*
X118006961Y-73677815D01*
X117961206Y-73625011D01*
X117950000Y-73573500D01*
X117950000Y-73447500D01*
X118450000Y-73447500D01*
X119672295Y-73447500D01*
X119672295Y-73447498D01*
X119672100Y-73445013D01*
X119626281Y-73287301D01*
X119542685Y-73145947D01*
X119542678Y-73145938D01*
X119426561Y-73029821D01*
X119426552Y-73029814D01*
X119285196Y-72946217D01*
X119285193Y-72946216D01*
X119127495Y-72900400D01*
X119127489Y-72900399D01*
X119090649Y-72897500D01*
X118450000Y-72897500D01*
X118450000Y-73447500D01*
X117950000Y-73447500D01*
X117950000Y-72897500D01*
X117309350Y-72897500D01*
X117272510Y-72900399D01*
X117272504Y-72900400D01*
X117114806Y-72946216D01*
X117114803Y-72946217D01*
X116973447Y-73029814D01*
X116973438Y-73029821D01*
X116912181Y-73091079D01*
X116850858Y-73124564D01*
X116781166Y-73119580D01*
X116725233Y-73077708D01*
X116700816Y-73012244D01*
X116700500Y-73003398D01*
X116700500Y-72387000D01*
X116720185Y-72319961D01*
X116772989Y-72274206D01*
X116824500Y-72263000D01*
X126274903Y-72263000D01*
X126341942Y-72282685D01*
X126362584Y-72299319D01*
X128833681Y-74770416D01*
X128867166Y-74831739D01*
X128870000Y-74858097D01*
X128870000Y-77356330D01*
X128869999Y-77356348D01*
X128869999Y-77522054D01*
X128869998Y-77522054D01*
X128869999Y-77522057D01*
X128910923Y-77674785D01*
X128910924Y-77674787D01*
X128910923Y-77674787D01*
X128921579Y-77693242D01*
X128921580Y-77693244D01*
X128989975Y-77811709D01*
X128989981Y-77811717D01*
X129108849Y-77930585D01*
X129108855Y-77930590D01*
X129268737Y-78090472D01*
X129302222Y-78151795D01*
X129301660Y-78204522D01*
X129301849Y-78204552D01*
X129301646Y-78205831D01*
X129301633Y-78207087D01*
X129301087Y-78209360D01*
X129270000Y-78405639D01*
X129270000Y-78604360D01*
X129301087Y-78800637D01*
X129362493Y-78989629D01*
X129362494Y-78989632D01*
X129435750Y-79133403D01*
X129452713Y-79166694D01*
X129569519Y-79327464D01*
X129569521Y-79327466D01*
X129659374Y-79417319D01*
X129692859Y-79478642D01*
X129687875Y-79548334D01*
X129659374Y-79592681D01*
X129569521Y-79682533D01*
X129452713Y-79843305D01*
X129362494Y-80020367D01*
X129362493Y-80020370D01*
X129301087Y-80209362D01*
X129270000Y-80405639D01*
X129270000Y-80604360D01*
X129301087Y-80800637D01*
X129362493Y-80989629D01*
X129362494Y-80989632D01*
X129421533Y-81105500D01*
X129452713Y-81166694D01*
X129569519Y-81327464D01*
X129710036Y-81467981D01*
X129870806Y-81584787D01*
X130047071Y-81674598D01*
X130078453Y-81697400D01*
X130505054Y-82124000D01*
X130482340Y-82124000D01*
X130385439Y-82149964D01*
X130298560Y-82200124D01*
X130227624Y-82271060D01*
X130177464Y-82357939D01*
X130151500Y-82454840D01*
X130151500Y-82477552D01*
X129480230Y-81806282D01*
X129480229Y-81806283D01*
X129453143Y-81843564D01*
X129362957Y-82020562D01*
X129301575Y-82209476D01*
X129301575Y-82209479D01*
X129270500Y-82405678D01*
X129270500Y-82604321D01*
X129301575Y-82800520D01*
X129301575Y-82800523D01*
X129362957Y-82989437D01*
X129453141Y-83166432D01*
X129480230Y-83203715D01*
X129480231Y-83203716D01*
X130151500Y-82532447D01*
X130151500Y-82555160D01*
X130177464Y-82652061D01*
X130227624Y-82738940D01*
X130298560Y-82809876D01*
X130385439Y-82860036D01*
X130482340Y-82886000D01*
X130505053Y-82886000D01*
X129833783Y-83557268D01*
X129833783Y-83557269D01*
X129871067Y-83584358D01*
X130048062Y-83674542D01*
X130236977Y-83735924D01*
X130433179Y-83767000D01*
X130631821Y-83767000D01*
X130828020Y-83735924D01*
X130828023Y-83735924D01*
X131016937Y-83674542D01*
X131193925Y-83584362D01*
X131231216Y-83557268D01*
X130559948Y-82886000D01*
X130582660Y-82886000D01*
X130679561Y-82860036D01*
X130766440Y-82809876D01*
X130837376Y-82738940D01*
X130887536Y-82652061D01*
X130913500Y-82555160D01*
X130913500Y-82532447D01*
X131584768Y-83203715D01*
X131611862Y-83166425D01*
X131702042Y-82989437D01*
X131763424Y-82800523D01*
X131763424Y-82800520D01*
X131794500Y-82604321D01*
X131794500Y-82405678D01*
X131763424Y-82209479D01*
X131763424Y-82209476D01*
X131702042Y-82020562D01*
X131611858Y-81843567D01*
X131584768Y-81806283D01*
X130913500Y-82477551D01*
X130913500Y-82454840D01*
X130887536Y-82357939D01*
X130837376Y-82271060D01*
X130766440Y-82200124D01*
X130679561Y-82149964D01*
X130582660Y-82124000D01*
X130559947Y-82124000D01*
X130986544Y-81697402D01*
X131017928Y-81674599D01*
X131194194Y-81584787D01*
X131354964Y-81467981D01*
X131495481Y-81327464D01*
X131612287Y-81166694D01*
X131702505Y-80989632D01*
X131763913Y-80800636D01*
X131795000Y-80604361D01*
X131795000Y-80405639D01*
X131763913Y-80209364D01*
X131763910Y-80209355D01*
X131763371Y-80207109D01*
X131763415Y-80206221D01*
X131763151Y-80204552D01*
X131763501Y-80204496D01*
X131766857Y-80137326D01*
X131796262Y-80090472D01*
X131818359Y-80068375D01*
X132075020Y-79811716D01*
X132154077Y-79674785D01*
X132195001Y-79522057D01*
X132195001Y-79363942D01*
X132195001Y-79356347D01*
X132195000Y-79356329D01*
X132195000Y-74227945D01*
X132195000Y-74227943D01*
X132154077Y-74075216D01*
X132152878Y-74073139D01*
X132075024Y-73938290D01*
X132075021Y-73938286D01*
X132075020Y-73938284D01*
X131963216Y-73826480D01*
X131963215Y-73826479D01*
X131958885Y-73822149D01*
X131958874Y-73822139D01*
X127912590Y-69775855D01*
X127912588Y-69775852D01*
X127793717Y-69656981D01*
X127793716Y-69656980D01*
X127706904Y-69606860D01*
X127706904Y-69606859D01*
X127706900Y-69606858D01*
X127656785Y-69577923D01*
X127504057Y-69536999D01*
X127345943Y-69536999D01*
X127338347Y-69536999D01*
X127338331Y-69537000D01*
X115370943Y-69537000D01*
X115218216Y-69577923D01*
X115218209Y-69577926D01*
X115081290Y-69656975D01*
X115081282Y-69656981D01*
X114969481Y-69768782D01*
X114969475Y-69768790D01*
X114890426Y-69905709D01*
X114890423Y-69905716D01*
X114849500Y-70058443D01*
X114849500Y-72829797D01*
X114829815Y-72896836D01*
X114777011Y-72942591D01*
X114707853Y-72952535D01*
X114701309Y-72951414D01*
X114628845Y-72937000D01*
X114628842Y-72937000D01*
X114471158Y-72937000D01*
X114471155Y-72937000D01*
X114316510Y-72967761D01*
X114316498Y-72967764D01*
X114170827Y-73028102D01*
X114170814Y-73028109D01*
X114039125Y-73116102D01*
X113972447Y-73136980D01*
X113970234Y-73137000D01*
X111825097Y-73137000D01*
X111795656Y-73128355D01*
X111765670Y-73121832D01*
X111760654Y-73118077D01*
X111758058Y-73117315D01*
X111737416Y-73100681D01*
X111711416Y-73074681D01*
X111677931Y-73013358D01*
X111682915Y-72943666D01*
X111724787Y-72887733D01*
X111790251Y-72863316D01*
X111799097Y-72863000D01*
X111946286Y-72863000D01*
X111946287Y-72863000D01*
X112156243Y-72829746D01*
X112358412Y-72764057D01*
X112547816Y-72667551D01*
X112634138Y-72604835D01*
X112719786Y-72542609D01*
X112719788Y-72542606D01*
X112719792Y-72542604D01*
X112870104Y-72392292D01*
X112870106Y-72392288D01*
X112870109Y-72392286D01*
X112995048Y-72220320D01*
X112995047Y-72220320D01*
X112995051Y-72220316D01*
X113091557Y-72030912D01*
X113157246Y-71828743D01*
X113190500Y-71618787D01*
X113190500Y-71406213D01*
X113157246Y-71196257D01*
X113091557Y-70994088D01*
X112995051Y-70804684D01*
X112995049Y-70804681D01*
X112995048Y-70804679D01*
X112870109Y-70632713D01*
X112719786Y-70482390D01*
X112547820Y-70357451D01*
X112358414Y-70260944D01*
X112358413Y-70260943D01*
X112358412Y-70260943D01*
X112156243Y-70195254D01*
X112156241Y-70195253D01*
X112156240Y-70195253D01*
X111994957Y-70169708D01*
X111946287Y-70162000D01*
X111733713Y-70162000D01*
X111685042Y-70169708D01*
X111523760Y-70195253D01*
X111321585Y-70260944D01*
X111132179Y-70357451D01*
X110960215Y-70482389D01*
X110846673Y-70595931D01*
X110785350Y-70629415D01*
X110715658Y-70624431D01*
X110659725Y-70582559D01*
X110642810Y-70551582D01*
X110593797Y-70420171D01*
X110593793Y-70420164D01*
X110507547Y-70304955D01*
X110507544Y-70304952D01*
X110392335Y-70218706D01*
X110392328Y-70218702D01*
X110257482Y-70168408D01*
X110257483Y-70168408D01*
X110197883Y-70162001D01*
X110197881Y-70162000D01*
X110197873Y-70162000D01*
X110197864Y-70162000D01*
X108402129Y-70162000D01*
X108402123Y-70162001D01*
X108342516Y-70168408D01*
X108207671Y-70218702D01*
X108207664Y-70218706D01*
X108092455Y-70304952D01*
X108092452Y-70304955D01*
X108006206Y-70420164D01*
X108006202Y-70420171D01*
X107955908Y-70555017D01*
X107949501Y-70614616D01*
X107949500Y-70614635D01*
X107949500Y-72410370D01*
X107949501Y-72410376D01*
X107955908Y-72469983D01*
X108006202Y-72604828D01*
X108006206Y-72604835D01*
X108092452Y-72720044D01*
X108092455Y-72720047D01*
X108207664Y-72806293D01*
X108207671Y-72806297D01*
X108342517Y-72856591D01*
X108342516Y-72856591D01*
X108349444Y-72857335D01*
X108402127Y-72863000D01*
X109749902Y-72862999D01*
X109816941Y-72882684D01*
X109837583Y-72899318D01*
X110263584Y-73325319D01*
X110297069Y-73386642D01*
X110292085Y-73456334D01*
X110250213Y-73512267D01*
X110184749Y-73536684D01*
X110175903Y-73537000D01*
X105254499Y-73537000D01*
X105187460Y-73517315D01*
X105141705Y-73464511D01*
X105130499Y-73413000D01*
X105130499Y-73337498D01*
X105130498Y-73337481D01*
X105119999Y-73234703D01*
X105119998Y-73234700D01*
X105090485Y-73145637D01*
X105064814Y-73068166D01*
X104972712Y-72918844D01*
X104848656Y-72794788D01*
X104699334Y-72702686D01*
X104532797Y-72647501D01*
X104532795Y-72647500D01*
X104430010Y-72637000D01*
X101829998Y-72637000D01*
X101829981Y-72637001D01*
X101727203Y-72647500D01*
X101727200Y-72647501D01*
X101560668Y-72702685D01*
X101560663Y-72702687D01*
X101411342Y-72794789D01*
X101287289Y-72918842D01*
X101195187Y-73068163D01*
X101195185Y-73068168D01*
X101175241Y-73128355D01*
X101140001Y-73234703D01*
X101140001Y-73234704D01*
X101140000Y-73234704D01*
X101129500Y-73337483D01*
X89400500Y-73337483D01*
X89400500Y-70561405D01*
X97450000Y-70561405D01*
X97450000Y-70823594D01*
X97484220Y-71083509D01*
X97484222Y-71083520D01*
X97552075Y-71336755D01*
X97652404Y-71578971D01*
X97652409Y-71578982D01*
X97783488Y-71806016D01*
X97783494Y-71806024D01*
X97870080Y-71918865D01*
X98477912Y-71311032D01*
X98572829Y-71441675D01*
X98700825Y-71569671D01*
X98831465Y-71664586D01*
X98223633Y-72272417D01*
X98223633Y-72272418D01*
X98336475Y-72359005D01*
X98336483Y-72359011D01*
X98563517Y-72490090D01*
X98563528Y-72490095D01*
X98805744Y-72590424D01*
X99058979Y-72658277D01*
X99058990Y-72658279D01*
X99318905Y-72692499D01*
X99318920Y-72692500D01*
X99581080Y-72692500D01*
X99581094Y-72692499D01*
X99841009Y-72658279D01*
X99841020Y-72658277D01*
X100094255Y-72590424D01*
X100336471Y-72490095D01*
X100336482Y-72490090D01*
X100563516Y-72359011D01*
X100563534Y-72358999D01*
X100676365Y-72272419D01*
X100676365Y-72272417D01*
X100068534Y-71664586D01*
X100199175Y-71569671D01*
X100327171Y-71441675D01*
X100422086Y-71311034D01*
X101029917Y-71918865D01*
X101029919Y-71918865D01*
X101116499Y-71806034D01*
X101116511Y-71806016D01*
X101247590Y-71578982D01*
X101247595Y-71578971D01*
X101347924Y-71336755D01*
X101415777Y-71083520D01*
X101415779Y-71083509D01*
X101449999Y-70823594D01*
X101450000Y-70823580D01*
X101450000Y-70561419D01*
X101449999Y-70561405D01*
X101415779Y-70301490D01*
X101415777Y-70301479D01*
X101347924Y-70048244D01*
X101247595Y-69806028D01*
X101247590Y-69806017D01*
X101116511Y-69578983D01*
X101116505Y-69578975D01*
X101029918Y-69466133D01*
X101029917Y-69466133D01*
X100422085Y-70073965D01*
X100327171Y-69943325D01*
X100199175Y-69815329D01*
X100068532Y-69720412D01*
X100676365Y-69112580D01*
X100563524Y-69025994D01*
X100563516Y-69025988D01*
X100336482Y-68894909D01*
X100336471Y-68894904D01*
X100094255Y-68794575D01*
X99841020Y-68726722D01*
X99841009Y-68726720D01*
X99581094Y-68692500D01*
X99318905Y-68692500D01*
X99058990Y-68726720D01*
X99058979Y-68726722D01*
X98805744Y-68794575D01*
X98563528Y-68894904D01*
X98563517Y-68894909D01*
X98336471Y-69025996D01*
X98223633Y-69112579D01*
X98223633Y-69112580D01*
X98831466Y-69720413D01*
X98700825Y-69815329D01*
X98572829Y-69943325D01*
X98477913Y-70073966D01*
X97870080Y-69466133D01*
X97870079Y-69466133D01*
X97783496Y-69578971D01*
X97652409Y-69806017D01*
X97652404Y-69806028D01*
X97552075Y-70048244D01*
X97484222Y-70301479D01*
X97484220Y-70301490D01*
X97450000Y-70561405D01*
X89400500Y-70561405D01*
X89400500Y-68719681D01*
X89420185Y-68652642D01*
X89472989Y-68606887D01*
X89542147Y-68596943D01*
X89605703Y-68625968D01*
X89612181Y-68632000D01*
X89722915Y-68742734D01*
X89933711Y-68910838D01*
X90162003Y-69054284D01*
X90404921Y-69171267D01*
X90596049Y-69238145D01*
X90659397Y-69260312D01*
X90659405Y-69260315D01*
X90659408Y-69260315D01*
X90659409Y-69260316D01*
X90922268Y-69320312D01*
X91190187Y-69350499D01*
X91190188Y-69350500D01*
X91190191Y-69350500D01*
X91459812Y-69350500D01*
X91459812Y-69350499D01*
X91727732Y-69320312D01*
X91990591Y-69260316D01*
X92245079Y-69171267D01*
X92487997Y-69054284D01*
X92716289Y-68910838D01*
X92927085Y-68742734D01*
X93117734Y-68552085D01*
X93285838Y-68341289D01*
X93429284Y-68112997D01*
X93546267Y-67870079D01*
X93635316Y-67615591D01*
X93695312Y-67352732D01*
X93725500Y-67084809D01*
X93725500Y-66815191D01*
X93695312Y-66547268D01*
X93635316Y-66284409D01*
X93546267Y-66029921D01*
X93429284Y-65787003D01*
X93285838Y-65558711D01*
X93117734Y-65347915D01*
X92927085Y-65157266D01*
X92927083Y-65157264D01*
X92913518Y-65146446D01*
X92873378Y-65089257D01*
X92870529Y-65019446D01*
X92905876Y-64959176D01*
X92968195Y-64927584D01*
X92990832Y-64925500D01*
X129009168Y-64925500D01*
X129076207Y-64945185D01*
G37*
%TD.AperFunction*%
M02*
