%TF.GenerationSoftware,KiCad,Pcbnew,10.0.3*%
%TF.CreationDate,2026-07-08T15:00:03+05:30*%
%TF.ProjectId,USB-UART(Converter),5553422d-5541-4525-9428-436f6e766572,rev?*%
%TF.SameCoordinates,Original*%
%TF.FileFunction,Copper,L2,Bot*%
%TF.FilePolarity,Positive*%
%FSLAX46Y46*%
G04 Gerber Fmt 4.6, Leading zero omitted, Abs format (unit mm)*
G04 Created by KiCad (PCBNEW 10.0.3) date 2026-07-08 15:00:03*
%MOMM*%
%LPD*%
G01*
G04 APERTURE LIST*
%TA.AperFunction,ComponentPad*%
%ADD10C,1.524000*%
%TD*%
%TA.AperFunction,ComponentPad*%
%ADD11R,1.524000X1.524000*%
%TD*%
%TA.AperFunction,ComponentPad*%
%ADD12C,3.800000*%
%TD*%
%TA.AperFunction,ComponentPad*%
%ADD13R,1.700000X1.700000*%
%TD*%
%TA.AperFunction,ComponentPad*%
%ADD14C,1.700000*%
%TD*%
%TA.AperFunction,ComponentPad*%
%ADD15C,3.000000*%
%TD*%
%TA.AperFunction,ViaPad*%
%ADD16C,0.600000*%
%TD*%
%TA.AperFunction,Conductor*%
%ADD17C,0.200000*%
%TD*%
G04 APERTURE END LIST*
D10*
X130532500Y-82505000D03*
X130532500Y-80505000D03*
X130532500Y-78505000D03*
D11*
X130532500Y-76505000D03*
D12*
X91325000Y-66950000D03*
X130675000Y-88550000D03*
X130675000Y-66950000D03*
X91325000Y-88550000D03*
D13*
X109300000Y-71512500D03*
D14*
X111840000Y-71512500D03*
D15*
X99450000Y-70692500D03*
X99450000Y-83832500D03*
D16*
X105975000Y-75087500D03*
X115375000Y-76786027D03*
X105900000Y-80537500D03*
X116950000Y-72287500D03*
X114550000Y-73737500D03*
X114775000Y-77537500D03*
X115125000Y-79687500D03*
X115075000Y-82362500D03*
D17*
X127175000Y-71037500D02*
X130532500Y-74395000D01*
X130532500Y-74395000D02*
X130532500Y-76505000D01*
X112315000Y-71037500D02*
X127175000Y-71037500D01*
X111840000Y-71512500D02*
X112315000Y-71037500D01*
X115375000Y-76786027D02*
X115375000Y-73862500D01*
X105950000Y-80487500D02*
X105950000Y-75112500D01*
X115375000Y-73862500D02*
X116950000Y-72287500D01*
X105900000Y-80537500D02*
X105950000Y-80487500D01*
X105950000Y-75112500D02*
X105975000Y-75087500D01*
X114550000Y-73737500D02*
X114775000Y-73962500D01*
X114775000Y-73962500D02*
X114775000Y-77537500D01*
X115075000Y-79737500D02*
X115125000Y-79687500D01*
X115075000Y-82362500D02*
X115075000Y-79737500D01*
%TA.AperFunction,Conductor*%
G36*
X129076207Y-64945185D02*
G01*
X129121962Y-64997989D01*
X129131906Y-65067147D01*
X129102881Y-65130703D01*
X129086482Y-65146446D01*
X129072916Y-65157264D01*
X128882265Y-65347915D01*
X128714161Y-65558712D01*
X128570714Y-65787005D01*
X128453734Y-66029917D01*
X128364687Y-66284397D01*
X128364684Y-66284405D01*
X128304688Y-66547268D01*
X128304686Y-66547280D01*
X128274500Y-66815186D01*
X128274500Y-67084813D01*
X128304686Y-67352719D01*
X128304688Y-67352731D01*
X128364684Y-67615594D01*
X128364687Y-67615602D01*
X128453734Y-67870082D01*
X128570714Y-68112994D01*
X128570716Y-68112997D01*
X128714162Y-68341289D01*
X128882266Y-68552085D01*
X129072915Y-68742734D01*
X129283711Y-68910838D01*
X129512003Y-69054284D01*
X129754921Y-69171267D01*
X129946049Y-69238145D01*
X130009397Y-69260312D01*
X130009405Y-69260315D01*
X130009408Y-69260315D01*
X130009409Y-69260316D01*
X130272268Y-69320312D01*
X130540187Y-69350499D01*
X130540188Y-69350500D01*
X130540191Y-69350500D01*
X130809812Y-69350500D01*
X130809812Y-69350499D01*
X131077732Y-69320312D01*
X131340591Y-69260316D01*
X131595079Y-69171267D01*
X131837997Y-69054284D01*
X132066289Y-68910838D01*
X132277085Y-68742734D01*
X132467734Y-68552085D01*
X132635838Y-68341289D01*
X132779284Y-68112997D01*
X132896267Y-67870079D01*
X132985316Y-67615591D01*
X133045312Y-67352732D01*
X133075500Y-67084809D01*
X133075500Y-66815191D01*
X133045312Y-66547268D01*
X132985316Y-66284409D01*
X132896267Y-66029921D01*
X132779284Y-65787003D01*
X132635838Y-65558711D01*
X132467734Y-65347915D01*
X132277085Y-65157266D01*
X132277083Y-65157264D01*
X132263518Y-65146446D01*
X132223378Y-65089257D01*
X132220529Y-65019446D01*
X132255876Y-64959176D01*
X132318195Y-64927584D01*
X132340832Y-64925500D01*
X134325500Y-64925500D01*
X134392539Y-64945185D01*
X134438294Y-64997989D01*
X134449500Y-65049500D01*
X134449500Y-90525500D01*
X134429815Y-90592539D01*
X134377011Y-90638294D01*
X134325500Y-90649500D01*
X132246784Y-90649500D01*
X132179745Y-90629815D01*
X132133990Y-90577011D01*
X132124046Y-90507853D01*
X132153071Y-90444297D01*
X132169471Y-90428553D01*
X132277085Y-90342734D01*
X132467734Y-90152085D01*
X132635838Y-89941289D01*
X132779284Y-89712997D01*
X132896267Y-89470079D01*
X132985316Y-89215591D01*
X133045312Y-88952732D01*
X133075500Y-88684809D01*
X133075500Y-88415191D01*
X133045312Y-88147268D01*
X132985316Y-87884409D01*
X132896267Y-87629921D01*
X132779284Y-87387003D01*
X132635838Y-87158711D01*
X132467734Y-86947915D01*
X132277085Y-86757266D01*
X132066289Y-86589162D01*
X131837997Y-86445716D01*
X131837994Y-86445714D01*
X131595082Y-86328734D01*
X131340602Y-86239687D01*
X131340594Y-86239684D01*
X131143446Y-86194687D01*
X131077732Y-86179688D01*
X131077728Y-86179687D01*
X131077719Y-86179686D01*
X130809813Y-86149500D01*
X130809809Y-86149500D01*
X130540191Y-86149500D01*
X130540186Y-86149500D01*
X130272280Y-86179686D01*
X130272268Y-86179688D01*
X130009405Y-86239684D01*
X130009397Y-86239687D01*
X129754917Y-86328734D01*
X129512005Y-86445714D01*
X129283712Y-86589161D01*
X129072915Y-86757265D01*
X128882265Y-86947915D01*
X128714161Y-87158712D01*
X128570714Y-87387005D01*
X128453734Y-87629917D01*
X128364687Y-87884397D01*
X128364684Y-87884405D01*
X128304688Y-88147268D01*
X128304686Y-88147280D01*
X128274500Y-88415186D01*
X128274500Y-88684813D01*
X128304686Y-88952719D01*
X128304688Y-88952731D01*
X128364684Y-89215594D01*
X128364687Y-89215602D01*
X128453734Y-89470082D01*
X128570714Y-89712994D01*
X128570716Y-89712997D01*
X128714162Y-89941289D01*
X128750500Y-89986855D01*
X128882265Y-90152084D01*
X129072915Y-90342734D01*
X129180529Y-90428553D01*
X129220669Y-90485741D01*
X129223519Y-90555553D01*
X129188174Y-90615823D01*
X129125855Y-90647416D01*
X129103216Y-90649500D01*
X92896784Y-90649500D01*
X92829745Y-90629815D01*
X92783990Y-90577011D01*
X92774046Y-90507853D01*
X92803071Y-90444297D01*
X92819471Y-90428553D01*
X92927085Y-90342734D01*
X93117734Y-90152085D01*
X93285838Y-89941289D01*
X93429284Y-89712997D01*
X93546267Y-89470079D01*
X93635316Y-89215591D01*
X93695312Y-88952732D01*
X93725500Y-88684809D01*
X93725500Y-88415191D01*
X93695312Y-88147268D01*
X93635316Y-87884409D01*
X93546267Y-87629921D01*
X93429284Y-87387003D01*
X93285838Y-87158711D01*
X93117734Y-86947915D01*
X92927085Y-86757266D01*
X92716289Y-86589162D01*
X92487997Y-86445716D01*
X92487994Y-86445714D01*
X92245082Y-86328734D01*
X91990602Y-86239687D01*
X91990594Y-86239684D01*
X91793446Y-86194687D01*
X91727732Y-86179688D01*
X91727728Y-86179687D01*
X91727719Y-86179686D01*
X91459813Y-86149500D01*
X91459809Y-86149500D01*
X91190191Y-86149500D01*
X91190186Y-86149500D01*
X90922280Y-86179686D01*
X90922268Y-86179688D01*
X90659405Y-86239684D01*
X90659397Y-86239687D01*
X90404917Y-86328734D01*
X90162005Y-86445714D01*
X89933712Y-86589161D01*
X89722915Y-86757265D01*
X89612181Y-86868000D01*
X89550858Y-86901485D01*
X89481166Y-86896501D01*
X89425233Y-86854629D01*
X89400816Y-86789165D01*
X89400500Y-86780319D01*
X89400500Y-83701405D01*
X97450000Y-83701405D01*
X97450000Y-83963594D01*
X97484220Y-84223509D01*
X97484222Y-84223520D01*
X97552075Y-84476755D01*
X97652404Y-84718971D01*
X97652409Y-84718982D01*
X97783488Y-84946016D01*
X97783494Y-84946024D01*
X97870080Y-85058865D01*
X98477912Y-84451032D01*
X98572829Y-84581675D01*
X98700825Y-84709671D01*
X98831465Y-84804586D01*
X98223633Y-85412417D01*
X98223633Y-85412418D01*
X98336475Y-85499005D01*
X98336483Y-85499011D01*
X98563517Y-85630090D01*
X98563528Y-85630095D01*
X98805744Y-85730424D01*
X99058979Y-85798277D01*
X99058990Y-85798279D01*
X99318905Y-85832499D01*
X99318920Y-85832500D01*
X99581080Y-85832500D01*
X99581094Y-85832499D01*
X99841009Y-85798279D01*
X99841020Y-85798277D01*
X100094255Y-85730424D01*
X100336471Y-85630095D01*
X100336482Y-85630090D01*
X100563516Y-85499011D01*
X100563534Y-85498999D01*
X100676365Y-85412419D01*
X100676365Y-85412417D01*
X100068534Y-84804586D01*
X100199175Y-84709671D01*
X100327171Y-84581675D01*
X100422086Y-84451034D01*
X101029917Y-85058865D01*
X101029919Y-85058865D01*
X101116499Y-84946034D01*
X101116511Y-84946016D01*
X101247590Y-84718982D01*
X101247595Y-84718971D01*
X101347924Y-84476755D01*
X101415777Y-84223520D01*
X101415779Y-84223509D01*
X101449999Y-83963594D01*
X101450000Y-83963580D01*
X101450000Y-83701419D01*
X101449998Y-83701403D01*
X101426932Y-83526194D01*
X101415779Y-83441490D01*
X101415777Y-83441479D01*
X101347924Y-83188244D01*
X101247595Y-82946028D01*
X101247590Y-82946017D01*
X101116511Y-82718983D01*
X101116505Y-82718975D01*
X101029918Y-82606133D01*
X101029917Y-82606133D01*
X100422085Y-83213965D01*
X100327171Y-83083325D01*
X100199175Y-82955329D01*
X100068532Y-82860412D01*
X100645292Y-82283653D01*
X114274500Y-82283653D01*
X114274500Y-82441346D01*
X114305261Y-82595989D01*
X114305264Y-82596001D01*
X114365602Y-82741672D01*
X114365609Y-82741685D01*
X114453210Y-82872788D01*
X114453213Y-82872792D01*
X114564707Y-82984286D01*
X114564711Y-82984289D01*
X114695814Y-83071890D01*
X114695827Y-83071897D01*
X114841498Y-83132235D01*
X114841503Y-83132237D01*
X114996153Y-83162999D01*
X114996156Y-83163000D01*
X114996158Y-83163000D01*
X115153844Y-83163000D01*
X115153845Y-83162999D01*
X115308497Y-83132237D01*
X115454179Y-83071894D01*
X115585289Y-82984289D01*
X115696789Y-82872789D01*
X115784394Y-82741679D01*
X115844737Y-82595997D01*
X115875500Y-82441342D01*
X115875500Y-82283658D01*
X115875500Y-82283655D01*
X115875499Y-82283653D01*
X115844738Y-82129010D01*
X115844737Y-82129003D01*
X115842665Y-82124000D01*
X115784397Y-81983327D01*
X115784390Y-81983314D01*
X115696398Y-81851625D01*
X115675520Y-81784947D01*
X115675500Y-81782734D01*
X115675500Y-80320440D01*
X115695185Y-80253401D01*
X115711820Y-80232758D01*
X115746786Y-80197792D01*
X115746789Y-80197789D01*
X115834394Y-80066679D01*
X115894737Y-79920997D01*
X115925500Y-79766342D01*
X115925500Y-79608658D01*
X115925500Y-79608655D01*
X115925499Y-79608653D01*
X115913501Y-79548334D01*
X115894737Y-79454003D01*
X115879542Y-79417319D01*
X115834397Y-79308327D01*
X115834390Y-79308314D01*
X115746789Y-79177211D01*
X115746786Y-79177207D01*
X115635292Y-79065713D01*
X115635288Y-79065710D01*
X115504185Y-78978109D01*
X115504172Y-78978102D01*
X115358501Y-78917764D01*
X115358489Y-78917761D01*
X115203845Y-78887000D01*
X115203842Y-78887000D01*
X115046158Y-78887000D01*
X115046155Y-78887000D01*
X114891510Y-78917761D01*
X114891498Y-78917764D01*
X114745827Y-78978102D01*
X114745814Y-78978109D01*
X114614711Y-79065710D01*
X114614707Y-79065713D01*
X114503213Y-79177207D01*
X114503210Y-79177211D01*
X114415609Y-79308314D01*
X114415602Y-79308327D01*
X114355264Y-79453998D01*
X114355261Y-79454010D01*
X114324500Y-79608653D01*
X114324500Y-79766346D01*
X114355261Y-79920989D01*
X114355264Y-79921001D01*
X114415602Y-80066672D01*
X114415606Y-80066679D01*
X114453602Y-80123544D01*
X114474480Y-80190221D01*
X114474500Y-80192435D01*
X114474500Y-81782734D01*
X114454815Y-81849773D01*
X114453602Y-81851625D01*
X114365609Y-81983314D01*
X114365602Y-81983327D01*
X114305264Y-82128998D01*
X114305261Y-82129010D01*
X114274500Y-82283653D01*
X100645292Y-82283653D01*
X100676365Y-82252580D01*
X100563524Y-82165994D01*
X100563516Y-82165988D01*
X100336482Y-82034909D01*
X100336471Y-82034904D01*
X100094255Y-81934575D01*
X99841020Y-81866722D01*
X99841009Y-81866720D01*
X99581094Y-81832500D01*
X99318905Y-81832500D01*
X99058990Y-81866720D01*
X99058979Y-81866722D01*
X98805744Y-81934575D01*
X98563528Y-82034904D01*
X98563517Y-82034909D01*
X98336471Y-82165996D01*
X98223633Y-82252579D01*
X98223633Y-82252580D01*
X98831466Y-82860413D01*
X98700825Y-82955329D01*
X98572829Y-83083325D01*
X98477913Y-83213966D01*
X97870080Y-82606133D01*
X97870079Y-82606133D01*
X97783496Y-82718971D01*
X97652409Y-82946017D01*
X97652404Y-82946028D01*
X97552075Y-83188244D01*
X97484222Y-83441479D01*
X97484220Y-83441490D01*
X97450000Y-83701405D01*
X89400500Y-83701405D01*
X89400500Y-73658653D01*
X113749500Y-73658653D01*
X113749500Y-73816346D01*
X113780261Y-73970989D01*
X113780264Y-73971001D01*
X113840602Y-74116672D01*
X113840609Y-74116685D01*
X113928210Y-74247788D01*
X113928213Y-74247792D01*
X114039708Y-74359287D01*
X114039711Y-74359289D01*
X114119391Y-74412529D01*
X114164196Y-74466140D01*
X114174500Y-74515631D01*
X114174500Y-76957734D01*
X114154815Y-77024773D01*
X114153602Y-77026625D01*
X114065609Y-77158314D01*
X114065602Y-77158327D01*
X114005264Y-77303998D01*
X114005261Y-77304010D01*
X113974500Y-77458653D01*
X113974500Y-77616346D01*
X114005261Y-77770989D01*
X114005264Y-77771001D01*
X114065602Y-77916672D01*
X114065609Y-77916685D01*
X114153210Y-78047788D01*
X114153213Y-78047792D01*
X114264707Y-78159286D01*
X114264711Y-78159289D01*
X114395814Y-78246890D01*
X114395827Y-78246897D01*
X114541498Y-78307235D01*
X114541503Y-78307237D01*
X114696153Y-78337999D01*
X114696156Y-78338000D01*
X114696158Y-78338000D01*
X114853844Y-78338000D01*
X114853845Y-78337999D01*
X115008497Y-78307237D01*
X115154179Y-78246894D01*
X115285289Y-78159289D01*
X115396789Y-78047789D01*
X115484394Y-77916679D01*
X115544737Y-77770997D01*
X115575500Y-77616342D01*
X115575500Y-77458658D01*
X115575500Y-77458655D01*
X115575499Y-77458653D01*
X115546901Y-77314883D01*
X115544737Y-77304003D01*
X115544735Y-77303998D01*
X115484397Y-77158327D01*
X115484390Y-77158314D01*
X115396398Y-77026625D01*
X115375520Y-76959947D01*
X115375500Y-76957734D01*
X115375500Y-73883445D01*
X115375500Y-73883443D01*
X115354725Y-73805909D01*
X115350500Y-73773816D01*
X115350500Y-73658655D01*
X115350499Y-73658653D01*
X115319738Y-73504010D01*
X115319737Y-73504003D01*
X115319735Y-73503998D01*
X115259397Y-73358327D01*
X115259390Y-73358314D01*
X115171789Y-73227211D01*
X115171786Y-73227207D01*
X115060292Y-73115713D01*
X115060288Y-73115710D01*
X114929185Y-73028109D01*
X114929172Y-73028102D01*
X114783501Y-72967764D01*
X114783489Y-72967761D01*
X114628845Y-72937000D01*
X114628842Y-72937000D01*
X114471158Y-72937000D01*
X114471155Y-72937000D01*
X114316510Y-72967761D01*
X114316498Y-72967764D01*
X114170827Y-73028102D01*
X114170814Y-73028109D01*
X114039711Y-73115710D01*
X114039707Y-73115713D01*
X113928213Y-73227207D01*
X113928210Y-73227211D01*
X113840609Y-73358314D01*
X113840602Y-73358327D01*
X113780264Y-73503998D01*
X113780261Y-73504010D01*
X113749500Y-73658653D01*
X89400500Y-73658653D01*
X89400500Y-70561405D01*
X97450000Y-70561405D01*
X97450000Y-70823594D01*
X97484220Y-71083509D01*
X97484222Y-71083520D01*
X97552075Y-71336755D01*
X97652404Y-71578971D01*
X97652409Y-71578982D01*
X97783488Y-71806016D01*
X97783494Y-71806024D01*
X97870080Y-71918865D01*
X98477912Y-71311032D01*
X98572829Y-71441675D01*
X98700825Y-71569671D01*
X98831465Y-71664586D01*
X98223633Y-72272417D01*
X98223633Y-72272418D01*
X98336475Y-72359005D01*
X98336483Y-72359011D01*
X98563517Y-72490090D01*
X98563528Y-72490095D01*
X98805744Y-72590424D01*
X99058979Y-72658277D01*
X99058990Y-72658279D01*
X99318905Y-72692499D01*
X99318920Y-72692500D01*
X99581080Y-72692500D01*
X99581094Y-72692499D01*
X99841009Y-72658279D01*
X99841020Y-72658277D01*
X100094255Y-72590424D01*
X100336471Y-72490095D01*
X100336482Y-72490090D01*
X100563516Y-72359011D01*
X100563534Y-72358999D01*
X100676365Y-72272419D01*
X100676365Y-72272417D01*
X100068534Y-71664586D01*
X100199175Y-71569671D01*
X100327171Y-71441675D01*
X100422086Y-71311034D01*
X101029917Y-71918865D01*
X101029919Y-71918865D01*
X101116499Y-71806034D01*
X101116511Y-71806016D01*
X101247590Y-71578982D01*
X101247595Y-71578971D01*
X101347924Y-71336755D01*
X101415777Y-71083520D01*
X101415779Y-71083509D01*
X101449999Y-70823594D01*
X101450000Y-70823580D01*
X101450000Y-70614635D01*
X107949500Y-70614635D01*
X107949500Y-72410370D01*
X107949501Y-72410376D01*
X107955908Y-72469983D01*
X108006202Y-72604828D01*
X108006206Y-72604835D01*
X108092452Y-72720044D01*
X108092455Y-72720047D01*
X108207664Y-72806293D01*
X108207671Y-72806297D01*
X108342517Y-72856591D01*
X108342516Y-72856591D01*
X108349444Y-72857335D01*
X108402127Y-72863000D01*
X110197872Y-72862999D01*
X110257483Y-72856591D01*
X110392331Y-72806296D01*
X110507546Y-72720046D01*
X110593796Y-72604831D01*
X110642810Y-72473416D01*
X110684681Y-72417484D01*
X110750145Y-72393066D01*
X110818418Y-72407917D01*
X110846673Y-72429069D01*
X110960213Y-72542609D01*
X111132179Y-72667548D01*
X111132181Y-72667549D01*
X111132184Y-72667551D01*
X111321588Y-72764057D01*
X111523757Y-72829746D01*
X111733713Y-72863000D01*
X111733714Y-72863000D01*
X111946286Y-72863000D01*
X111946287Y-72863000D01*
X112156243Y-72829746D01*
X112358412Y-72764057D01*
X112547816Y-72667551D01*
X112634138Y-72604835D01*
X112719786Y-72542609D01*
X112719788Y-72542606D01*
X112719792Y-72542604D01*
X112870104Y-72392292D01*
X112870106Y-72392288D01*
X112870109Y-72392286D01*
X112995048Y-72220320D01*
X112995047Y-72220320D01*
X112995051Y-72220316D01*
X113091557Y-72030912D01*
X113157246Y-71828743D01*
X113170890Y-71742602D01*
X113200820Y-71679467D01*
X113260131Y-71642536D01*
X113293363Y-71638000D01*
X126874903Y-71638000D01*
X126941942Y-71657685D01*
X126962584Y-71674319D01*
X129895681Y-74607416D01*
X129929166Y-74668739D01*
X129932000Y-74695097D01*
X129932000Y-75118500D01*
X129912315Y-75185539D01*
X129859511Y-75231294D01*
X129808001Y-75242500D01*
X129722630Y-75242500D01*
X129722623Y-75242501D01*
X129663016Y-75248908D01*
X129528171Y-75299202D01*
X129528164Y-75299206D01*
X129412955Y-75385452D01*
X129412952Y-75385455D01*
X129326706Y-75500664D01*
X129326702Y-75500671D01*
X129276408Y-75635517D01*
X129270001Y-75695116D01*
X129270001Y-75695123D01*
X129270000Y-75695135D01*
X129270000Y-77314870D01*
X129270001Y-77314876D01*
X129276408Y-77374483D01*
X129326702Y-77509328D01*
X129326706Y-77509335D01*
X129412951Y-77624543D01*
X129412952Y-77624544D01*
X129412954Y-77624546D01*
X129443795Y-77647633D01*
X129485665Y-77703566D01*
X129490649Y-77773258D01*
X129469803Y-77819782D01*
X129452714Y-77843304D01*
X129362494Y-78020367D01*
X129362493Y-78020370D01*
X129301087Y-78209362D01*
X129270000Y-78405639D01*
X129270000Y-78604360D01*
X129301087Y-78800637D01*
X129362493Y-78989629D01*
X129362494Y-78989632D01*
X129401259Y-79065711D01*
X129452713Y-79166694D01*
X129569519Y-79327464D01*
X129569521Y-79327466D01*
X129659374Y-79417319D01*
X129692859Y-79478642D01*
X129687875Y-79548334D01*
X129659374Y-79592681D01*
X129569521Y-79682533D01*
X129452713Y-79843305D01*
X129362494Y-80020367D01*
X129362493Y-80020370D01*
X129301087Y-80209362D01*
X129270000Y-80405639D01*
X129270000Y-80604360D01*
X129301087Y-80800637D01*
X129362493Y-80989629D01*
X129362494Y-80989632D01*
X129452713Y-81166694D01*
X129569519Y-81327464D01*
X129710036Y-81467981D01*
X129870806Y-81584787D01*
X130047071Y-81674598D01*
X130078453Y-81697400D01*
X130505054Y-82124000D01*
X130482340Y-82124000D01*
X130385439Y-82149964D01*
X130298560Y-82200124D01*
X130227624Y-82271060D01*
X130177464Y-82357939D01*
X130151500Y-82454840D01*
X130151500Y-82477552D01*
X129480230Y-81806282D01*
X129480229Y-81806283D01*
X129453143Y-81843564D01*
X129362957Y-82020562D01*
X129301575Y-82209476D01*
X129301575Y-82209479D01*
X129270500Y-82405678D01*
X129270500Y-82604321D01*
X129301575Y-82800520D01*
X129301575Y-82800523D01*
X129362957Y-82989437D01*
X129453141Y-83166432D01*
X129480230Y-83203715D01*
X129480231Y-83203716D01*
X130151500Y-82532447D01*
X130151500Y-82555160D01*
X130177464Y-82652061D01*
X130227624Y-82738940D01*
X130298560Y-82809876D01*
X130385439Y-82860036D01*
X130482340Y-82886000D01*
X130505053Y-82886000D01*
X129833783Y-83557268D01*
X129833783Y-83557269D01*
X129871067Y-83584358D01*
X130048062Y-83674542D01*
X130236977Y-83735924D01*
X130433179Y-83767000D01*
X130631821Y-83767000D01*
X130828020Y-83735924D01*
X130828023Y-83735924D01*
X131016937Y-83674542D01*
X131193925Y-83584362D01*
X131231216Y-83557268D01*
X130559948Y-82886000D01*
X130582660Y-82886000D01*
X130679561Y-82860036D01*
X130766440Y-82809876D01*
X130837376Y-82738940D01*
X130887536Y-82652061D01*
X130913500Y-82555160D01*
X130913500Y-82532447D01*
X131584768Y-83203715D01*
X131611862Y-83166425D01*
X131702042Y-82989437D01*
X131763424Y-82800523D01*
X131763424Y-82800520D01*
X131794500Y-82604321D01*
X131794500Y-82405678D01*
X131763424Y-82209479D01*
X131763424Y-82209476D01*
X131702042Y-82020562D01*
X131611858Y-81843567D01*
X131584768Y-81806283D01*
X130913500Y-82477551D01*
X130913500Y-82454840D01*
X130887536Y-82357939D01*
X130837376Y-82271060D01*
X130766440Y-82200124D01*
X130679561Y-82149964D01*
X130582660Y-82124000D01*
X130559947Y-82124000D01*
X130986544Y-81697402D01*
X131017928Y-81674599D01*
X131194194Y-81584787D01*
X131354964Y-81467981D01*
X131495481Y-81327464D01*
X131612287Y-81166694D01*
X131702505Y-80989632D01*
X131763913Y-80800636D01*
X131795000Y-80604361D01*
X131795000Y-80405639D01*
X131763913Y-80209364D01*
X131702505Y-80020368D01*
X131702505Y-80020367D01*
X131612286Y-79843305D01*
X131556372Y-79766346D01*
X131495481Y-79682536D01*
X131405626Y-79592681D01*
X131372141Y-79531358D01*
X131377125Y-79461666D01*
X131405626Y-79417319D01*
X131495481Y-79327464D01*
X131612287Y-79166694D01*
X131702505Y-78989632D01*
X131763913Y-78800636D01*
X131795000Y-78604361D01*
X131795000Y-78405639D01*
X131763913Y-78209364D01*
X131702505Y-78020368D01*
X131702505Y-78020367D01*
X131671262Y-77959052D01*
X131612287Y-77843306D01*
X131610467Y-77840802D01*
X131595198Y-77819784D01*
X131571718Y-77753978D01*
X131587544Y-77685924D01*
X131621201Y-77647636D01*
X131652046Y-77624546D01*
X131738296Y-77509331D01*
X131788591Y-77374483D01*
X131795000Y-77314873D01*
X131794999Y-75695128D01*
X131788591Y-75635517D01*
X131738296Y-75500669D01*
X131738295Y-75500668D01*
X131738293Y-75500664D01*
X131652047Y-75385455D01*
X131652044Y-75385452D01*
X131536835Y-75299206D01*
X131536828Y-75299202D01*
X131401982Y-75248908D01*
X131401983Y-75248908D01*
X131342383Y-75242501D01*
X131342381Y-75242500D01*
X131342373Y-75242500D01*
X131342365Y-75242500D01*
X131257000Y-75242500D01*
X131189961Y-75222815D01*
X131144206Y-75170011D01*
X131133000Y-75118500D01*
X131133000Y-74484059D01*
X131133001Y-74484046D01*
X131133001Y-74315945D01*
X131133001Y-74315943D01*
X131092077Y-74163215D01*
X131078167Y-74139124D01*
X131059168Y-74106215D01*
X131059168Y-74106214D01*
X131013024Y-74026290D01*
X131013021Y-74026286D01*
X131013020Y-74026284D01*
X130901216Y-73914480D01*
X130901215Y-73914479D01*
X130896885Y-73910149D01*
X130896874Y-73910139D01*
X127662590Y-70675855D01*
X127662588Y-70675852D01*
X127543717Y-70556981D01*
X127543712Y-70556977D01*
X127414534Y-70482397D01*
X127414533Y-70482396D01*
X127406787Y-70477923D01*
X127345693Y-70461553D01*
X127254057Y-70436999D01*
X127095943Y-70436999D01*
X127088347Y-70436999D01*
X127088331Y-70437000D01*
X112697599Y-70437000D01*
X112630560Y-70417315D01*
X112624714Y-70413318D01*
X112547819Y-70357451D01*
X112547818Y-70357450D01*
X112547816Y-70357449D01*
X112358412Y-70260943D01*
X112156243Y-70195254D01*
X112156241Y-70195253D01*
X112156240Y-70195253D01*
X111994957Y-70169708D01*
X111946287Y-70162000D01*
X111733713Y-70162000D01*
X111685042Y-70169708D01*
X111523760Y-70195253D01*
X111321585Y-70260944D01*
X111132179Y-70357451D01*
X110960215Y-70482389D01*
X110846673Y-70595931D01*
X110785350Y-70629415D01*
X110715658Y-70624431D01*
X110659725Y-70582559D01*
X110642810Y-70551582D01*
X110593797Y-70420171D01*
X110593793Y-70420164D01*
X110507547Y-70304955D01*
X110507544Y-70304952D01*
X110392335Y-70218706D01*
X110392328Y-70218702D01*
X110257482Y-70168408D01*
X110257483Y-70168408D01*
X110197883Y-70162001D01*
X110197881Y-70162000D01*
X110197873Y-70162000D01*
X110197864Y-70162000D01*
X108402129Y-70162000D01*
X108402123Y-70162001D01*
X108342516Y-70168408D01*
X108207671Y-70218702D01*
X108207664Y-70218706D01*
X108092455Y-70304952D01*
X108092452Y-70304955D01*
X108006206Y-70420164D01*
X108006202Y-70420171D01*
X107955908Y-70555017D01*
X107949501Y-70614616D01*
X107949500Y-70614635D01*
X101450000Y-70614635D01*
X101450000Y-70561419D01*
X101449999Y-70561405D01*
X101415779Y-70301490D01*
X101415777Y-70301479D01*
X101347924Y-70048244D01*
X101247595Y-69806028D01*
X101247590Y-69806017D01*
X101116511Y-69578983D01*
X101116505Y-69578975D01*
X101029918Y-69466133D01*
X101029917Y-69466133D01*
X100422085Y-70073965D01*
X100327171Y-69943325D01*
X100199175Y-69815329D01*
X100068532Y-69720412D01*
X100676365Y-69112580D01*
X100563524Y-69025994D01*
X100563516Y-69025988D01*
X100336482Y-68894909D01*
X100336471Y-68894904D01*
X100094255Y-68794575D01*
X99841020Y-68726722D01*
X99841009Y-68726720D01*
X99581094Y-68692500D01*
X99318905Y-68692500D01*
X99058990Y-68726720D01*
X99058979Y-68726722D01*
X98805744Y-68794575D01*
X98563528Y-68894904D01*
X98563517Y-68894909D01*
X98336471Y-69025996D01*
X98223633Y-69112579D01*
X98223633Y-69112580D01*
X98831466Y-69720413D01*
X98700825Y-69815329D01*
X98572829Y-69943325D01*
X98477913Y-70073966D01*
X97870080Y-69466133D01*
X97870079Y-69466133D01*
X97783496Y-69578971D01*
X97652409Y-69806017D01*
X97652404Y-69806028D01*
X97552075Y-70048244D01*
X97484222Y-70301479D01*
X97484220Y-70301490D01*
X97450000Y-70561405D01*
X89400500Y-70561405D01*
X89400500Y-68719681D01*
X89420185Y-68652642D01*
X89472989Y-68606887D01*
X89542147Y-68596943D01*
X89605703Y-68625968D01*
X89612181Y-68632000D01*
X89722915Y-68742734D01*
X89933711Y-68910838D01*
X90162003Y-69054284D01*
X90404921Y-69171267D01*
X90596049Y-69238145D01*
X90659397Y-69260312D01*
X90659405Y-69260315D01*
X90659408Y-69260315D01*
X90659409Y-69260316D01*
X90922268Y-69320312D01*
X91190187Y-69350499D01*
X91190188Y-69350500D01*
X91190191Y-69350500D01*
X91459812Y-69350500D01*
X91459812Y-69350499D01*
X91727732Y-69320312D01*
X91990591Y-69260316D01*
X92245079Y-69171267D01*
X92487997Y-69054284D01*
X92716289Y-68910838D01*
X92927085Y-68742734D01*
X93117734Y-68552085D01*
X93285838Y-68341289D01*
X93429284Y-68112997D01*
X93546267Y-67870079D01*
X93635316Y-67615591D01*
X93695312Y-67352732D01*
X93725500Y-67084809D01*
X93725500Y-66815191D01*
X93695312Y-66547268D01*
X93635316Y-66284409D01*
X93546267Y-66029921D01*
X93429284Y-65787003D01*
X93285838Y-65558711D01*
X93117734Y-65347915D01*
X92927085Y-65157266D01*
X92927083Y-65157264D01*
X92913518Y-65146446D01*
X92873378Y-65089257D01*
X92870529Y-65019446D01*
X92905876Y-64959176D01*
X92968195Y-64927584D01*
X92990832Y-64925500D01*
X129009168Y-64925500D01*
X129076207Y-64945185D01*
G37*
%TD.AperFunction*%
M02*
