%TF.GenerationSoftware,KiCad,Pcbnew,10.0.3*%
%TF.CreationDate,2026-07-08T15:00:03+05:30*%
%TF.ProjectId,USB-UART(Converter),5553422d-5541-4525-9428-436f6e766572,rev?*%
%TF.SameCoordinates,Original*%
%TF.FileFunction,Legend,Bot*%
%TF.FilePolarity,Positive*%
%FSLAX46Y46*%
G04 Gerber Fmt 4.6, Leading zero omitted, Abs format (unit mm)*
G04 Created by KiCad (PCBNEW 10.0.3) date 2026-07-08 15:00:03*
%MOMM*%
%LPD*%
G01*
G04 APERTURE LIST*
%ADD10C,0.150000*%
G04 APERTURE END LIST*
D10*
X128690601Y-77607057D02*
X128176316Y-77607057D01*
X128433458Y-78507057D02*
X128433458Y-77607057D01*
X127962030Y-77607057D02*
X127362030Y-78507057D01*
X127362030Y-77607057D02*
X127962030Y-78507057D01*
X128197744Y-80757057D02*
X128497744Y-80328485D01*
X128712030Y-80757057D02*
X128712030Y-79857057D01*
X128712030Y-79857057D02*
X128369173Y-79857057D01*
X128369173Y-79857057D02*
X128283458Y-79899914D01*
X128283458Y-79899914D02*
X128240601Y-79942771D01*
X128240601Y-79942771D02*
X128197744Y-80028485D01*
X128197744Y-80028485D02*
X128197744Y-80157057D01*
X128197744Y-80157057D02*
X128240601Y-80242771D01*
X128240601Y-80242771D02*
X128283458Y-80285628D01*
X128283458Y-80285628D02*
X128369173Y-80328485D01*
X128369173Y-80328485D02*
X128712030Y-80328485D01*
X127897744Y-79857057D02*
X127297744Y-80757057D01*
X127297744Y-79857057D02*
X127897744Y-80757057D01*
X129222744Y-75832057D02*
X128665601Y-75832057D01*
X128665601Y-75832057D02*
X128965601Y-76174914D01*
X128965601Y-76174914D02*
X128837030Y-76174914D01*
X128837030Y-76174914D02*
X128751316Y-76217771D01*
X128751316Y-76217771D02*
X128708458Y-76260628D01*
X128708458Y-76260628D02*
X128665601Y-76346342D01*
X128665601Y-76346342D02*
X128665601Y-76560628D01*
X128665601Y-76560628D02*
X128708458Y-76646342D01*
X128708458Y-76646342D02*
X128751316Y-76689200D01*
X128751316Y-76689200D02*
X128837030Y-76732057D01*
X128837030Y-76732057D02*
X129094173Y-76732057D01*
X129094173Y-76732057D02*
X129179887Y-76689200D01*
X129179887Y-76689200D02*
X129222744Y-76646342D01*
X128408458Y-75832057D02*
X128108458Y-76732057D01*
X128108458Y-76732057D02*
X127808458Y-75832057D01*
X127594172Y-75832057D02*
X127037029Y-75832057D01*
X127037029Y-75832057D02*
X127337029Y-76174914D01*
X127337029Y-76174914D02*
X127208458Y-76174914D01*
X127208458Y-76174914D02*
X127122744Y-76217771D01*
X127122744Y-76217771D02*
X127079886Y-76260628D01*
X127079886Y-76260628D02*
X127037029Y-76346342D01*
X127037029Y-76346342D02*
X127037029Y-76560628D01*
X127037029Y-76560628D02*
X127079886Y-76646342D01*
X127079886Y-76646342D02*
X127122744Y-76689200D01*
X127122744Y-76689200D02*
X127208458Y-76732057D01*
X127208458Y-76732057D02*
X127465601Y-76732057D01*
X127465601Y-76732057D02*
X127551315Y-76689200D01*
X127551315Y-76689200D02*
X127594172Y-76646342D01*
X129015601Y-82149914D02*
X129101316Y-82107057D01*
X129101316Y-82107057D02*
X129229887Y-82107057D01*
X129229887Y-82107057D02*
X129358458Y-82149914D01*
X129358458Y-82149914D02*
X129444173Y-82235628D01*
X129444173Y-82235628D02*
X129487030Y-82321342D01*
X129487030Y-82321342D02*
X129529887Y-82492771D01*
X129529887Y-82492771D02*
X129529887Y-82621342D01*
X129529887Y-82621342D02*
X129487030Y-82792771D01*
X129487030Y-82792771D02*
X129444173Y-82878485D01*
X129444173Y-82878485D02*
X129358458Y-82964200D01*
X129358458Y-82964200D02*
X129229887Y-83007057D01*
X129229887Y-83007057D02*
X129144173Y-83007057D01*
X129144173Y-83007057D02*
X129015601Y-82964200D01*
X129015601Y-82964200D02*
X128972744Y-82921342D01*
X128972744Y-82921342D02*
X128972744Y-82621342D01*
X128972744Y-82621342D02*
X129144173Y-82621342D01*
X128587030Y-83007057D02*
X128587030Y-82107057D01*
X128587030Y-82107057D02*
X128072744Y-83007057D01*
X128072744Y-83007057D02*
X128072744Y-82107057D01*
X127644173Y-83007057D02*
X127644173Y-82107057D01*
X127644173Y-82107057D02*
X127429887Y-82107057D01*
X127429887Y-82107057D02*
X127301316Y-82149914D01*
X127301316Y-82149914D02*
X127215601Y-82235628D01*
X127215601Y-82235628D02*
X127172744Y-82321342D01*
X127172744Y-82321342D02*
X127129887Y-82492771D01*
X127129887Y-82492771D02*
X127129887Y-82621342D01*
X127129887Y-82621342D02*
X127172744Y-82792771D01*
X127172744Y-82792771D02*
X127215601Y-82878485D01*
X127215601Y-82878485D02*
X127301316Y-82964200D01*
X127301316Y-82964200D02*
X127429887Y-83007057D01*
X127429887Y-83007057D02*
X127644173Y-83007057D01*
M02*
