%TF.GenerationSoftware,KiCad,Pcbnew,10.0.3*%
%TF.CreationDate,2026-07-08T15:06:51+05:30*%
%TF.ProjectId,USB-UART(Converter),5553422d-5541-4525-9428-436f6e766572,rev?*%
%TF.SameCoordinates,Original*%
%TF.FileFunction,Drillmap*%
%TF.FilePolarity,Positive*%
%FSLAX45Y45*%
G04 Gerber Fmt 4.5, Leading zero omitted, Abs format (unit mm)*
G04 Created by KiCad (PCBNEW 10.0.3) date 2026-07-08 15:06:51*
%MOMM*%
%LPD*%
G01*
G04 APERTURE LIST*
%ADD10C,0.050000*%
%ADD11C,0.200000*%
G04 APERTURE END LIST*
D10*
X8890000Y-6442500D02*
X13495000Y-6442500D01*
X13495000Y-9115000D01*
X8890000Y-9115000D01*
X8890000Y-6442500D01*
D11*
X9148277Y-9428984D02*
X9148277Y-9228984D01*
X9148277Y-9228984D02*
X9195896Y-9228984D01*
X9195896Y-9228984D02*
X9224467Y-9238508D01*
X9224467Y-9238508D02*
X9243515Y-9257555D01*
X9243515Y-9257555D02*
X9253039Y-9276603D01*
X9253039Y-9276603D02*
X9262563Y-9314698D01*
X9262563Y-9314698D02*
X9262563Y-9343270D01*
X9262563Y-9343270D02*
X9253039Y-9381365D01*
X9253039Y-9381365D02*
X9243515Y-9400412D01*
X9243515Y-9400412D02*
X9224467Y-9419460D01*
X9224467Y-9419460D02*
X9195896Y-9428984D01*
X9195896Y-9428984D02*
X9148277Y-9428984D01*
X9348277Y-9428984D02*
X9348277Y-9295650D01*
X9348277Y-9333746D02*
X9357801Y-9314698D01*
X9357801Y-9314698D02*
X9367324Y-9305174D01*
X9367324Y-9305174D02*
X9386372Y-9295650D01*
X9386372Y-9295650D02*
X9405420Y-9295650D01*
X9472086Y-9428984D02*
X9472086Y-9295650D01*
X9472086Y-9228984D02*
X9462563Y-9238508D01*
X9462563Y-9238508D02*
X9472086Y-9248031D01*
X9472086Y-9248031D02*
X9481610Y-9238508D01*
X9481610Y-9238508D02*
X9472086Y-9228984D01*
X9472086Y-9228984D02*
X9472086Y-9248031D01*
X9595896Y-9428984D02*
X9576848Y-9419460D01*
X9576848Y-9419460D02*
X9567324Y-9400412D01*
X9567324Y-9400412D02*
X9567324Y-9228984D01*
X9700658Y-9428984D02*
X9681610Y-9419460D01*
X9681610Y-9419460D02*
X9672086Y-9400412D01*
X9672086Y-9400412D02*
X9672086Y-9228984D01*
X9929229Y-9428984D02*
X9929229Y-9228984D01*
X9929229Y-9228984D02*
X9995896Y-9371841D01*
X9995896Y-9371841D02*
X10062563Y-9228984D01*
X10062563Y-9228984D02*
X10062563Y-9428984D01*
X10243515Y-9428984D02*
X10243515Y-9324222D01*
X10243515Y-9324222D02*
X10233991Y-9305174D01*
X10233991Y-9305174D02*
X10214944Y-9295650D01*
X10214944Y-9295650D02*
X10176848Y-9295650D01*
X10176848Y-9295650D02*
X10157801Y-9305174D01*
X10243515Y-9419460D02*
X10224467Y-9428984D01*
X10224467Y-9428984D02*
X10176848Y-9428984D01*
X10176848Y-9428984D02*
X10157801Y-9419460D01*
X10157801Y-9419460D02*
X10148277Y-9400412D01*
X10148277Y-9400412D02*
X10148277Y-9381365D01*
X10148277Y-9381365D02*
X10157801Y-9362317D01*
X10157801Y-9362317D02*
X10176848Y-9352793D01*
X10176848Y-9352793D02*
X10224467Y-9352793D01*
X10224467Y-9352793D02*
X10243515Y-9343270D01*
X10338753Y-9295650D02*
X10338753Y-9495650D01*
X10338753Y-9305174D02*
X10357801Y-9295650D01*
X10357801Y-9295650D02*
X10395896Y-9295650D01*
X10395896Y-9295650D02*
X10414944Y-9305174D01*
X10414944Y-9305174D02*
X10424467Y-9314698D01*
X10424467Y-9314698D02*
X10433991Y-9333746D01*
X10433991Y-9333746D02*
X10433991Y-9390889D01*
X10433991Y-9390889D02*
X10424467Y-9409936D01*
X10424467Y-9409936D02*
X10414944Y-9419460D01*
X10414944Y-9419460D02*
X10395896Y-9428984D01*
X10395896Y-9428984D02*
X10357801Y-9428984D01*
X10357801Y-9428984D02*
X10338753Y-9419460D01*
X10519705Y-9409936D02*
X10529229Y-9419460D01*
X10529229Y-9419460D02*
X10519705Y-9428984D01*
X10519705Y-9428984D02*
X10510182Y-9419460D01*
X10510182Y-9419460D02*
X10519705Y-9409936D01*
X10519705Y-9409936D02*
X10519705Y-9428984D01*
X10519705Y-9305174D02*
X10529229Y-9314698D01*
X10529229Y-9314698D02*
X10519705Y-9324222D01*
X10519705Y-9324222D02*
X10510182Y-9314698D01*
X10510182Y-9314698D02*
X10519705Y-9305174D01*
X10519705Y-9305174D02*
X10519705Y-9324222D01*
M02*
