%TF.GenerationSoftware,KiCad,Pcbnew,10.0.3*%
%TF.CreationDate,2026-07-08T15:00:03+05:30*%
%TF.ProjectId,USB-UART(Converter),5553422d-5541-4525-9428-436f6e766572,rev?*%
%TF.SameCoordinates,Original*%
%TF.FileFunction,Legend,Top*%
%TF.FilePolarity,Positive*%
%FSLAX46Y46*%
G04 Gerber Fmt 4.6, Leading zero omitted, Abs format (unit mm)*
G04 Created by KiCad (PCBNEW 10.0.3) date 2026-07-08 15:00:03*
%MOMM*%
%LPD*%
G01*
G04 APERTURE LIST*
%ADD10C,0.150000*%
%ADD11C,0.180000*%
%ADD12C,0.200000*%
%ADD13C,0.120000*%
G04 APERTURE END LIST*
D10*
X94487969Y-65832057D02*
X94487969Y-64932057D01*
X94487969Y-65360628D02*
X95002255Y-65360628D01*
X95002255Y-65832057D02*
X95002255Y-64932057D01*
X95902255Y-65832057D02*
X95387969Y-65832057D01*
X95645112Y-65832057D02*
X95645112Y-64932057D01*
X95645112Y-64932057D02*
X95559398Y-65060628D01*
X95559398Y-65060628D02*
X95473683Y-65146342D01*
X95473683Y-65146342D02*
X95387969Y-65189200D01*
X133112969Y-66157057D02*
X133112969Y-65257057D01*
X133112969Y-65685628D02*
X133627255Y-65685628D01*
X133627255Y-66157057D02*
X133627255Y-65257057D01*
X134012969Y-65342771D02*
X134055826Y-65299914D01*
X134055826Y-65299914D02*
X134141541Y-65257057D01*
X134141541Y-65257057D02*
X134355826Y-65257057D01*
X134355826Y-65257057D02*
X134441541Y-65299914D01*
X134441541Y-65299914D02*
X134484398Y-65342771D01*
X134484398Y-65342771D02*
X134527255Y-65428485D01*
X134527255Y-65428485D02*
X134527255Y-65514200D01*
X134527255Y-65514200D02*
X134484398Y-65642771D01*
X134484398Y-65642771D02*
X133970112Y-66157057D01*
X133970112Y-66157057D02*
X134527255Y-66157057D01*
D11*
X94257706Y-90355497D02*
X94257706Y-89455497D01*
X94257706Y-89884068D02*
X94771992Y-89884068D01*
X94771992Y-90355497D02*
X94771992Y-89455497D01*
X95114849Y-89455497D02*
X95671992Y-89455497D01*
X95671992Y-89455497D02*
X95371992Y-89798354D01*
X95371992Y-89798354D02*
X95500563Y-89798354D01*
X95500563Y-89798354D02*
X95586278Y-89841211D01*
X95586278Y-89841211D02*
X95629135Y-89884068D01*
X95629135Y-89884068D02*
X95671992Y-89969782D01*
X95671992Y-89969782D02*
X95671992Y-90184068D01*
X95671992Y-90184068D02*
X95629135Y-90269782D01*
X95629135Y-90269782D02*
X95586278Y-90312640D01*
X95586278Y-90312640D02*
X95500563Y-90355497D01*
X95500563Y-90355497D02*
X95243420Y-90355497D01*
X95243420Y-90355497D02*
X95157706Y-90312640D01*
X95157706Y-90312640D02*
X95114849Y-90269782D01*
X107082706Y-65580497D02*
X107082706Y-66309068D01*
X107082706Y-66309068D02*
X107125563Y-66394782D01*
X107125563Y-66394782D02*
X107168421Y-66437640D01*
X107168421Y-66437640D02*
X107254135Y-66480497D01*
X107254135Y-66480497D02*
X107425563Y-66480497D01*
X107425563Y-66480497D02*
X107511278Y-66437640D01*
X107511278Y-66437640D02*
X107554135Y-66394782D01*
X107554135Y-66394782D02*
X107596992Y-66309068D01*
X107596992Y-66309068D02*
X107596992Y-65580497D01*
X107982706Y-66437640D02*
X108111278Y-66480497D01*
X108111278Y-66480497D02*
X108325563Y-66480497D01*
X108325563Y-66480497D02*
X108411278Y-66437640D01*
X108411278Y-66437640D02*
X108454135Y-66394782D01*
X108454135Y-66394782D02*
X108496992Y-66309068D01*
X108496992Y-66309068D02*
X108496992Y-66223354D01*
X108496992Y-66223354D02*
X108454135Y-66137640D01*
X108454135Y-66137640D02*
X108411278Y-66094782D01*
X108411278Y-66094782D02*
X108325563Y-66051925D01*
X108325563Y-66051925D02*
X108154135Y-66009068D01*
X108154135Y-66009068D02*
X108068420Y-65966211D01*
X108068420Y-65966211D02*
X108025563Y-65923354D01*
X108025563Y-65923354D02*
X107982706Y-65837640D01*
X107982706Y-65837640D02*
X107982706Y-65751925D01*
X107982706Y-65751925D02*
X108025563Y-65666211D01*
X108025563Y-65666211D02*
X108068420Y-65623354D01*
X108068420Y-65623354D02*
X108154135Y-65580497D01*
X108154135Y-65580497D02*
X108368420Y-65580497D01*
X108368420Y-65580497D02*
X108496992Y-65623354D01*
X109182706Y-66009068D02*
X109311278Y-66051925D01*
X109311278Y-66051925D02*
X109354135Y-66094782D01*
X109354135Y-66094782D02*
X109396992Y-66180497D01*
X109396992Y-66180497D02*
X109396992Y-66309068D01*
X109396992Y-66309068D02*
X109354135Y-66394782D01*
X109354135Y-66394782D02*
X109311278Y-66437640D01*
X109311278Y-66437640D02*
X109225563Y-66480497D01*
X109225563Y-66480497D02*
X108882706Y-66480497D01*
X108882706Y-66480497D02*
X108882706Y-65580497D01*
X108882706Y-65580497D02*
X109182706Y-65580497D01*
X109182706Y-65580497D02*
X109268421Y-65623354D01*
X109268421Y-65623354D02*
X109311278Y-65666211D01*
X109311278Y-65666211D02*
X109354135Y-65751925D01*
X109354135Y-65751925D02*
X109354135Y-65837640D01*
X109354135Y-65837640D02*
X109311278Y-65923354D01*
X109311278Y-65923354D02*
X109268421Y-65966211D01*
X109268421Y-65966211D02*
X109182706Y-66009068D01*
X109182706Y-66009068D02*
X108882706Y-66009068D01*
X109568421Y-66566211D02*
X110254135Y-66566211D01*
X110339849Y-65580497D02*
X110854135Y-65580497D01*
X110596992Y-66480497D02*
X110596992Y-65580497D01*
X111325563Y-65580497D02*
X111496991Y-65580497D01*
X111496991Y-65580497D02*
X111582706Y-65623354D01*
X111582706Y-65623354D02*
X111668420Y-65709068D01*
X111668420Y-65709068D02*
X111711277Y-65880497D01*
X111711277Y-65880497D02*
X111711277Y-66180497D01*
X111711277Y-66180497D02*
X111668420Y-66351925D01*
X111668420Y-66351925D02*
X111582706Y-66437640D01*
X111582706Y-66437640D02*
X111496991Y-66480497D01*
X111496991Y-66480497D02*
X111325563Y-66480497D01*
X111325563Y-66480497D02*
X111239849Y-66437640D01*
X111239849Y-66437640D02*
X111154134Y-66351925D01*
X111154134Y-66351925D02*
X111111277Y-66180497D01*
X111111277Y-66180497D02*
X111111277Y-65880497D01*
X111111277Y-65880497D02*
X111154134Y-65709068D01*
X111154134Y-65709068D02*
X111239849Y-65623354D01*
X111239849Y-65623354D02*
X111325563Y-65580497D01*
X111882706Y-66566211D02*
X112568420Y-66566211D01*
X112782705Y-65580497D02*
X112782705Y-66309068D01*
X112782705Y-66309068D02*
X112825562Y-66394782D01*
X112825562Y-66394782D02*
X112868420Y-66437640D01*
X112868420Y-66437640D02*
X112954134Y-66480497D01*
X112954134Y-66480497D02*
X113125562Y-66480497D01*
X113125562Y-66480497D02*
X113211277Y-66437640D01*
X113211277Y-66437640D02*
X113254134Y-66394782D01*
X113254134Y-66394782D02*
X113296991Y-66309068D01*
X113296991Y-66309068D02*
X113296991Y-65580497D01*
X113682705Y-66223354D02*
X114111277Y-66223354D01*
X113596991Y-66480497D02*
X113896991Y-65580497D01*
X113896991Y-65580497D02*
X114196991Y-66480497D01*
X115011277Y-66480497D02*
X114711277Y-66051925D01*
X114496991Y-66480497D02*
X114496991Y-65580497D01*
X114496991Y-65580497D02*
X114839848Y-65580497D01*
X114839848Y-65580497D02*
X114925563Y-65623354D01*
X114925563Y-65623354D02*
X114968420Y-65666211D01*
X114968420Y-65666211D02*
X115011277Y-65751925D01*
X115011277Y-65751925D02*
X115011277Y-65880497D01*
X115011277Y-65880497D02*
X114968420Y-65966211D01*
X114968420Y-65966211D02*
X114925563Y-66009068D01*
X114925563Y-66009068D02*
X114839848Y-66051925D01*
X114839848Y-66051925D02*
X114496991Y-66051925D01*
X115268420Y-65580497D02*
X115782706Y-65580497D01*
X115525563Y-66480497D02*
X115525563Y-65580497D01*
X132782706Y-90780497D02*
X132782706Y-89880497D01*
X132782706Y-90309068D02*
X133296992Y-90309068D01*
X133296992Y-90780497D02*
X133296992Y-89880497D01*
X134111278Y-90180497D02*
X134111278Y-90780497D01*
X133896992Y-89837640D02*
X133682706Y-90480497D01*
X133682706Y-90480497D02*
X134239849Y-90480497D01*
D12*
X131716666Y-72127219D02*
X131716666Y-72841504D01*
X131716666Y-72841504D02*
X131669047Y-72984361D01*
X131669047Y-72984361D02*
X131573809Y-73079600D01*
X131573809Y-73079600D02*
X131430952Y-73127219D01*
X131430952Y-73127219D02*
X131335714Y-73127219D01*
X132145238Y-72222457D02*
X132192857Y-72174838D01*
X132192857Y-72174838D02*
X132288095Y-72127219D01*
X132288095Y-72127219D02*
X132526190Y-72127219D01*
X132526190Y-72127219D02*
X132621428Y-72174838D01*
X132621428Y-72174838D02*
X132669047Y-72222457D01*
X132669047Y-72222457D02*
X132716666Y-72317695D01*
X132716666Y-72317695D02*
X132716666Y-72412933D01*
X132716666Y-72412933D02*
X132669047Y-72555790D01*
X132669047Y-72555790D02*
X132097619Y-73127219D01*
X132097619Y-73127219D02*
X132716666Y-73127219D01*
D10*
X109791666Y-68054819D02*
X109791666Y-68769104D01*
X109791666Y-68769104D02*
X109744047Y-68911961D01*
X109744047Y-68911961D02*
X109648809Y-69007200D01*
X109648809Y-69007200D02*
X109505952Y-69054819D01*
X109505952Y-69054819D02*
X109410714Y-69054819D01*
X110791666Y-69054819D02*
X110220238Y-69054819D01*
X110505952Y-69054819D02*
X110505952Y-68054819D01*
X110505952Y-68054819D02*
X110410714Y-68197676D01*
X110410714Y-68197676D02*
X110315476Y-68292914D01*
X110315476Y-68292914D02*
X110220238Y-68340533D01*
D12*
X92053571Y-85027219D02*
X92053571Y-85836742D01*
X92053571Y-85836742D02*
X92101190Y-85931980D01*
X92101190Y-85931980D02*
X92148809Y-85979600D01*
X92148809Y-85979600D02*
X92244047Y-86027219D01*
X92244047Y-86027219D02*
X92434523Y-86027219D01*
X92434523Y-86027219D02*
X92529761Y-85979600D01*
X92529761Y-85979600D02*
X92577380Y-85931980D01*
X92577380Y-85931980D02*
X92624999Y-85836742D01*
X92624999Y-85836742D02*
X92624999Y-85027219D01*
X93053571Y-85979600D02*
X93196428Y-86027219D01*
X93196428Y-86027219D02*
X93434523Y-86027219D01*
X93434523Y-86027219D02*
X93529761Y-85979600D01*
X93529761Y-85979600D02*
X93577380Y-85931980D01*
X93577380Y-85931980D02*
X93624999Y-85836742D01*
X93624999Y-85836742D02*
X93624999Y-85741504D01*
X93624999Y-85741504D02*
X93577380Y-85646266D01*
X93577380Y-85646266D02*
X93529761Y-85598647D01*
X93529761Y-85598647D02*
X93434523Y-85551028D01*
X93434523Y-85551028D02*
X93244047Y-85503409D01*
X93244047Y-85503409D02*
X93148809Y-85455790D01*
X93148809Y-85455790D02*
X93101190Y-85408171D01*
X93101190Y-85408171D02*
X93053571Y-85312933D01*
X93053571Y-85312933D02*
X93053571Y-85217695D01*
X93053571Y-85217695D02*
X93101190Y-85122457D01*
X93101190Y-85122457D02*
X93148809Y-85074838D01*
X93148809Y-85074838D02*
X93244047Y-85027219D01*
X93244047Y-85027219D02*
X93482142Y-85027219D01*
X93482142Y-85027219D02*
X93624999Y-85074838D01*
X94386904Y-85503409D02*
X94529761Y-85551028D01*
X94529761Y-85551028D02*
X94577380Y-85598647D01*
X94577380Y-85598647D02*
X94624999Y-85693885D01*
X94624999Y-85693885D02*
X94624999Y-85836742D01*
X94624999Y-85836742D02*
X94577380Y-85931980D01*
X94577380Y-85931980D02*
X94529761Y-85979600D01*
X94529761Y-85979600D02*
X94434523Y-86027219D01*
X94434523Y-86027219D02*
X94053571Y-86027219D01*
X94053571Y-86027219D02*
X94053571Y-85027219D01*
X94053571Y-85027219D02*
X94386904Y-85027219D01*
X94386904Y-85027219D02*
X94482142Y-85074838D01*
X94482142Y-85074838D02*
X94529761Y-85122457D01*
X94529761Y-85122457D02*
X94577380Y-85217695D01*
X94577380Y-85217695D02*
X94577380Y-85312933D01*
X94577380Y-85312933D02*
X94529761Y-85408171D01*
X94529761Y-85408171D02*
X94482142Y-85455790D01*
X94482142Y-85455790D02*
X94386904Y-85503409D01*
X94386904Y-85503409D02*
X94053571Y-85503409D01*
X94815476Y-86122457D02*
X95577380Y-86122457D01*
X95767857Y-85741504D02*
X96244047Y-85741504D01*
X95672619Y-86027219D02*
X96005952Y-85027219D01*
X96005952Y-85027219D02*
X96339285Y-86027219D01*
D13*
X133532500Y-73505000D02*
X133532500Y-76505000D01*
X133082500Y-74005000D02*
X133082500Y-85055000D01*
X130532500Y-73505000D02*
X133532500Y-73505000D01*
X127232500Y-85055000D02*
X133082500Y-85055000D01*
X127232500Y-82405000D02*
X127232500Y-85055000D01*
X127232500Y-81505000D02*
X127232500Y-82105000D01*
X127232500Y-77755000D02*
X127232500Y-81255000D01*
X127232500Y-76905000D02*
X127232500Y-77505000D01*
X127232500Y-74005000D02*
X133082500Y-74005000D01*
X127232500Y-74005000D02*
X127232500Y-76655000D01*
X108250000Y-80412500D02*
X108250000Y-83412500D01*
X113050000Y-83412500D02*
X113050000Y-80412500D01*
X107920000Y-72892500D02*
X107920000Y-71512500D01*
X109300000Y-72892500D02*
X107920000Y-72892500D01*
X110570000Y-70132500D02*
X113220000Y-70132500D01*
X110570000Y-72892500D02*
X110570000Y-70132500D01*
X110570000Y-72892500D02*
X113220000Y-72892500D01*
X113220000Y-72892500D02*
X113220000Y-70132500D01*
X110715580Y-87677500D02*
X110434420Y-87677500D01*
X110715580Y-88697500D02*
X110434420Y-88697500D01*
X110484420Y-75252500D02*
X110765580Y-75252500D01*
X110484420Y-76272500D02*
X110765580Y-76272500D01*
X118615000Y-73082500D02*
X122735000Y-73082500D01*
X118615000Y-73137500D02*
X118615000Y-73082500D01*
X118615000Y-83202500D02*
X118615000Y-83147500D01*
X122735000Y-73082500D02*
X122735000Y-73137500D01*
X122735000Y-83147500D02*
X122735000Y-83202500D01*
X122735000Y-83202500D02*
X118615000Y-83202500D01*
X118075000Y-73132500D02*
X117835000Y-72802500D01*
X118315000Y-72802500D01*
X118075000Y-73132500D01*
G36*
X118075000Y-73132500D02*
G01*
X117835000Y-72802500D01*
X118315000Y-72802500D01*
X118075000Y-73132500D01*
G37*
X89060000Y-69832500D02*
X89060000Y-84692500D01*
X89060000Y-84692500D02*
X89580000Y-84692500D01*
X89580000Y-69832500D02*
X89060000Y-69832500D01*
X89580000Y-70602500D02*
X89580000Y-69832500D01*
X89580000Y-70602500D02*
X97690000Y-70602500D01*
X89580000Y-84692500D02*
X89580000Y-83922500D01*
X97690000Y-83922500D02*
X89580000Y-83922500D01*
X103270000Y-74592500D02*
X103270000Y-75412500D01*
X103270000Y-77092500D02*
X103270000Y-77432500D01*
X103270000Y-79112500D02*
X103270000Y-79932500D01*
X103280000Y-70602500D02*
X101210000Y-70602500D01*
X103280000Y-70602500D02*
X103280000Y-72912500D01*
X103280000Y-81612500D02*
X103280000Y-83922500D01*
X103280000Y-83922500D02*
X101210000Y-83922500D01*
X104570000Y-72912500D02*
X103280000Y-72912500D01*
M02*
